<svg xmlns="http://www.w3.org/2000/svg" xmlns:xlink="http://www.w3.org/1999/xlink" viewBox="0 0 318 353.52"><defs><style>.cls-1{fill:#18d1cc;}.cls-2{fill:#161414;}.cls-3{fill:#262323;}.cls-4{fill:#3d3739;}.cls-5{fill:#bb9979;}.cls-10,.cls-6{fill:#ccb5a2;}.cls-7{fill:#725744;}.cls-8{fill:#967257;}.cls-9{fill:#9e806c;}.cls-10{opacity:0.69;}.cls-11{fill:#070808;}.cls-12{opacity:0.5;}.cls-13{fill:#cccccb;}.cls-14{fill:#ccc;}.cls-15{fill:#6f6261;}.cls-16{fill:url(#linear-gradient);}.cls-17{fill:url(#linear-gradient-2);}.cls-18{fill:#7f7777;}</style><linearGradient id="linear-gradient" x1="146.12" y1="213.57" x2="146.95" y2="235.74" gradientUnits="userSpaceOnUse"><stop offset="0.25" stop-color="#9b785f"/><stop offset="1" stop-color="#fff"/></linearGradient><linearGradient id="linear-gradient-2" x1="177.11" y1="212.41" x2="177.94" y2="234.57" xlink:href="#linear-gradient"/></defs><title>blackbear-logo</title><g id="Layer_30" data-name="Layer 30"><circle class="cls-1" cx="159" cy="194.52" r="159"/></g><g id="head_shape" data-name="head shape"><path class="cls-2" d="M299.33,241.94,298.22,236s-1.88-4.5-1.22-4.5,4.33,2.83,4.67,2.17-3.17-3.83-3.17-3.83A2.27,2.27,0,0,1,300,229h.83a2.9,2.9,0,0,0-.5-2,13.2,13.2,0,0,0-2.67-2l2.13-.37-.62-2.37.75-1.87-2.5-4.25h3l-2.5-3.37s1-1.37,1.75-1.37a9.6,9.6,0,0,0,2-.37,11,11,0,0,0-3-2.12,7.9,7.9,0,0,1-2.75-2.37l2.5.88,1.38.38-1.12-2.5.75-1.25-2.87-2.75,1.25-1.87,2.63.25-3.12-2.25.88-1.37h1.38s-2.25-2.87-2.5-3.25a9.68,9.68,0,0,0-1.5-1.25l-.12-1.25,1.63-.5-1-5.37-1.62-2.25-1.12-3.5s.38-1.5,1.38-1.62a7.91,7.91,0,0,1,1.88,0s-1.25-2.37-2.87-2.87l-1.62-.5-1-2.37,1.5.13-1.87-2.62,1.13-2.12,1.88.75-2.25-3-.75-2.37-2.87-2.12.13-1.62,3.5,1.75a6,6,0,0,0-1.37-1.87,9,9,0,0,1-1.62-2.12l2.25-.62-2.87-2.12-4.25-1.62,1.75-1.37,3-.12-2.87-2.62-2.25-1,2.63-1.62-4.12-2.75,3.38-2-2.62-1.37.38-1.37L281,136l-1.75-1-.83-4.21-2.37-2.62-1.37-3.87-2.12-3.87,2,1.13a10.35,10.35,0,0,1-1.75-7.12c.5-4.25,7.5-9.37,7.5-9.37l2.13-1.37-1.75-3.87a5.5,5.5,0,0,1-.87-3.12,7.83,7.83,0,0,1,1.62-3.59,159,159,0,0,0-236.83-9c.09,1.06-.17,1.77-1,1.77a6.29,6.29,0,0,1-.68,0q-1,1.11-2.06,2.23c.9.75,1.73,1.52,1.58,2.15-.33,1.33-2.5,1.67-2.83,2.33s4.67,2.83,6.17,6.83,4,5.83,7.5,11.33-.33,11.5,1,11.5,2.33,2.17.67,2.17H53.33s1.54.79.29,2.42-4.5,2.75-4.5,2.75L52,131.27l-4.75,1.5s.88.88.5,1.63-.12,3.25-1.87,4A46.57,46.57,0,0,1,40.5,140s3.13,0,3.38,1.38.63,3.25-1.87,4.88S37.38,149,37.38,149s2.88-.12,3.5,1.13-4.5,2-4.5,2l.13,1.25-2,1.25v2.13l-.75,2.38s2.25,1.63,1.88,2.25a20.85,20.85,0,0,1-3,2.5l.38,1.38s2.63.25,2.38,1.5S33,168.52,33,168.52l1.17,2.17-2.83,4.5s3.17,1.33,2.17,2.5a9.92,9.92,0,0,1-2.67,2s.17,2.83-.67,3.33a21.85,21.85,0,0,1-2.62,1.17s3,1.67,2.28,3.33a3.93,3.93,0,0,1-2.28,2.17s2,2.67,1.45,4.33-3.33,3.67-3.33,3.67a2.17,2.17,0,0,1,.67,2.67,19.15,19.15,0,0,1-3,3.5H28l-2.17,2.5.83,1.67-1.33,2.17h1.5s.5,2.5-.17,3.33a33.54,33.54,0,0,0-1.83,2.83s2.17.5,1.5,1.83A27.32,27.32,0,0,0,25,221.85l.33,1.67-2,3.5,2,.67-1,2.67-1,2.33a95.67,95.67,0,0,0-.67,43.68,159,159,0,0,0,277-7.61C303,252.87,299.33,241.94,299.33,241.94Z"/></g><g id="Layer_29" data-name="Layer 29"><path class="cls-2" d="M19.67,35.69a6.64,6.64,0,0,1,1.67,5.17c-.33,1-2,2.17-2,2.17a4,4,0,0,1,1.83,2.33c.33,1.5,0,3.5,1.17,4.5s2.5,2,2.17,3.17-.5,3.83,1.17,5.5,3.67,3.5,2.83,4A8.14,8.14,0,0,0,26.83,64s4.33.67,4.33,2.33S28.67,68,28.67,68s3.33,1.5,4,2.67S34.83,75,35.5,75s5.83,1,7.33,4,.92,4.25-.75,5.58c-1.3,1-2.75.25-3.08,1.25s3.83,3,3.5,4.33-2.5,1.67-2.83,2.33,4.67,2.83,6.17,6.83,4,5.83,7.5,11.33-.33,11.5,1,11.5,2.33,2.17.67,2.17H53.33s1.54.79.29,2.42-4.5,2.75-4.5,2.75L52,131.27l-4.75,1.5s.88.88.5,1.63-.12,3.25-1.87,4A46.57,46.57,0,0,1,40.5,140s3.13,0,3.38,1.38.63,3.25-1.87,4.88S37.38,149,37.38,149s2.88-.12,3.5,1.13-4.5,2-4.5,2l.13,1.25-2,1.25v2.13l-.75,2.38s2.25,1.63,1.88,2.25a20.85,20.85,0,0,1-3,2.5l.38,1.38s2.63.25,2.38,1.5S33,168.52,33,168.52l1.17,2.17-2.83,4.5s3.17,1.33,2.17,2.5a9.92,9.92,0,0,1-2.67,2s.17,2.83-.67,3.33a21.85,21.85,0,0,1-2.62,1.17s3,1.67,2.28,3.33a3.93,3.93,0,0,1-2.28,2.17s2,2.67,1.45,4.33-3.33,3.67-3.33,3.67a2.17,2.17,0,0,1,.67,2.67,19.15,19.15,0,0,1-3,3.5H28l-2.17,2.5.83,1.67-1.33,2.17h1.5s.5,2.5-.17,3.33a33.54,33.54,0,0,0-1.83,2.83s2.17.5,1.5,1.83A27.32,27.32,0,0,0,25,221.85l.33,1.67-.71,1.24A70.52,70.52,0,0,1,35.34,234c1.44,1.48,2.9,2.92,4.47,4.26.06,0,2.38,1.69,2.49,1.76.89.6,1.78,1.19,2.69,1.77,5.12,3.31,10.44,6.3,15.64,9.48,2.72,1.66,5.41,3.37,8,5.18.91.63,1.78,1.29,2.7,1.9.24.15,3.45,2.76,1.36,1.05-1.62-1.33.46.05,1.33.31h0l1,.1c2.72.26,5.44.61,8.16.87,13,1.2,26.07,2.12,38.73,5.3,3.3.83,6.53,1.87,9.88,2.53l2,.36c.19,0,1.86.17,2.36.21,5.59.45,11.21.49,16.8.94,7,.56,14,1.61,21,2.69,6,.93,10.18,1.65,14.71,2.1a96.5,96.5,0,0,0,18.6.09c6.94-.64,8.69-1.06,16.09-2,3.19-.42,6.37-.81,9.57-1.1l4.33-.38.88-.08A90.94,90.94,0,0,0,254,267.49c1.56-.53,3.12-1.09,4.65-1.71l.74-.34a86.79,86.79,0,0,0,7.72-4.07c2.21-1.32,4.37-2.74,6.48-4.22.32-.22,1.86-1.35,2.05-1.47.68-.54,1.36-1.09,2-1.65,6.62-5.47,12.81-13.49,20.58-17.89l0-.13s-1.88-4.5-1.22-4.5,4.33,2.83,4.67,2.17-3.17-3.83-3.17-3.83A2.27,2.27,0,0,1,300,229h.83a2.9,2.9,0,0,0-.5-2,13.2,13.2,0,0,0-2.67-2l2.13-.37-.62-2.37.75-1.87-2.5-4.25h3l-2.5-3.37s1-1.37,1.75-1.37a9.6,9.6,0,0,0,2-.37,11,11,0,0,0-3-2.12,7.9,7.9,0,0,1-2.75-2.37l2.5.88,1.38.38-1.12-2.5.75-1.25-2.87-2.75,1.25-1.87,2.63.25-3.12-2.25.88-1.37h1.38s-2.25-2.87-2.5-3.25a9.68,9.68,0,0,0-1.5-1.25l-.12-1.25,1.63-.5-1-5.37-1.62-2.25-1.12-3.5s.38-1.5,1.38-1.62a7.91,7.91,0,0,1,1.88,0s-1.25-2.37-2.87-2.87l-1.62-.5-1-2.37,1.5.13-1.87-2.62,1.13-2.12,1.88.75-2.25-3-.75-2.37-2.87-2.12.13-1.62,3.5,1.75a6,6,0,0,0-1.37-1.87,9,9,0,0,1-1.62-2.12l2.25-.62-2.87-2.12-4.25-1.62,1.75-1.37,3-.12-2.87-2.62-2.25-1,2.63-1.62-4.12-2.75,3.38-2-2.62-1.37.38-1.37L281,136l-1.75-1-.83-4.21-2.37-2.62-1.37-3.87-2.12-3.87,2,1.13a10.35,10.35,0,0,1-1.75-7.12c.5-4.25,7.5-9.37,7.5-9.37l2.13-1.37-1.75-3.87a5.5,5.5,0,0,1-.87-3.12c.88-4.5,4.13-5.37,4.13-5.37l-.75-1.87,1.13-3.25s-3.62-3.25-2.37-6.75a6,6,0,0,1,4.75-3.87l1.5-1,.25-1.62,2.63-1.37-1-1.25,2.5-2.75-.25-1.62,5-5.87-.62-2,3.5-3-.62-2,3.63-3.12s-2.87-1.75-2-3.5,4.5-3.87,4.5-3.87-1.87-3-1.75-4.87a7.57,7.57,0,0,1,.88-3.12l1-2.63s-2.62-1.12-2.75-2.5a4.89,4.89,0,0,1,.63-2.62s.5-3.25-.37-3.75a7.09,7.09,0,0,1-1.75-1.75s.38-2.5-.62-3.25a4.66,4.66,0,0,0-2-.87s.25-2.37-1.12-3.37a17.59,17.59,0,0,0-3.25-1.75s-.62-1.5,0-1.87l.63-.38-2-3.5-4.5-1.87s-.87-2.12-2.5-2.12-3-1.13-4-1.13a9.46,9.46,0,0,0-2,.25A8,8,0,0,0,274,.24c-3.25.94-5.75,1.44-5.75,1.44L266,1.44l-1.87,1.38s-2.12-.88-3.5.25A4.57,4.57,0,0,0,259,5.44s-2.37-.62-3.5.25a29.09,29.09,0,0,0-2.87,2.87s-4.5,3.5-4.62,5-.5,3-2,3.63-3.5,1.13-3.87,1.88-1.75,4.38-2.62,4.63-2.25.13-2.5,1.38.5,2.5-.37,3.75-2.37.63-2.25,2.13,1.75,3-1.37,4.5a14.4,14.4,0,0,1-7.25.88s-3.37-.12-4.25-.87-2-2-2.87-1.5a12.21,12.21,0,0,1-2.12.88s-.62-2.12-2.37-2.5a9.45,9.45,0,0,0-3.5,0s-2-2.13-3.25-2.25a20.55,20.55,0,0,0-3.37.13s-1.37-3.25-3.25-2.62a16.88,16.88,0,0,1-2.87.75,14.86,14.86,0,0,1-2.5-.37c-.75-.25.13-2.25-3.75-1.5l-3.87.75s-.25-2.25-3.25-1.37-5.5,1.63-5.5,1.63l-2.25-.75s-3-1.87-5.75-1.12a17.68,17.68,0,0,0-4.5,1.88l-2.12-1-2.47,2a4.29,4.29,0,0,1,0-2.25c.34-1.12,1.09-1.12,1.09-1.12s-2.62-.12-3.5.5-2.12,1.38-2.12,1.38-3.25-1.12-4.87-.75-2.25,1.63-3.37,1.38-2-2.12-3.75-1.5a9.48,9.48,0,0,1-2.87.63s-2-2.12-3.25-1.5a16.59,16.59,0,0,0-2.5,1.63l-4.37-1.29-4,2.33h-6l-5.67,2.33-4.33,2.67s-5,2-6.67,2-4-2-5.33,0-3,3-4.33,3-7.93-7.56-8.67-9.67C85.17,22,79,17.19,79,17.19S73,3.85,63.67,1.35s-23.33,0-23.33,0-3,1.83-4.67,1.83-5.33.83-5.5,2.17a7.71,7.71,0,0,1-1,2.67s-3.33-.33-3,1.67,2.45,6,0,6.33S21,17.24,21.67,19s0,3.64-1.5,6.31S17.5,29.19,18,31,18.33,34.52,19.67,35.69Z"/></g><g id="Layer_26" data-name="Layer 26"><path class="cls-3" d="M168,44.94a17.13,17.13,0,0,0-.82,2.67c2-1,4.11-3.15,6.38-2.92,2,.2.55,1.25.46,2.58.94-1,5.74-2.33,5.74-2.33l-1.64,2.38c7.11-1.5,7.77,2.33,11.63,1.52.39-.08.78.13,1.05-.13A16.84,16.84,0,0,1,195,45.94c-1.19,1.83-.18,2.67.23,5.58a4.54,4.54,0,0,1,2.51-3.58s-.25,2.32,3.68,5a2.56,2.56,0,0,1,2-2.33S208.2,56,210,56.82c-.47-1.64.62-2,.62-2s3.18,3.86,3.91,4.23l2.63,1.35c-.7-3,1.06-9.09.84-11.46-.55.63-2,1.92-2.15,1.25-.42-2.8-1.31-4.92-4.09-6.17-.21-.13.12-1-.09-1.17-1.77-1.16-3.81-.5-5.83-1.33-1-.39-1.19-.83-1-1.7-.32,0-.63,0-.93-.06l-2.31.77L199,39.85l-3.28-1.33-6.56,1-4.74-2-3.28.67-4.38-1.33-3.65-.67s-3.6.63-4,1-6.38,7.42-6.47,10.92C165.22,45.35,169,43.85,168,44.94Z"/><path class="cls-3" d="M158,45.81a17.49,17.49,0,0,1,.64,2.71c-1.87-1.14-3.81-3.38-6-3.28-1.91.09-.6,1.22-.59,2.55-.85-1.09-5.44-2.66-5.44-2.66L148,47.6c-6.81-1.91-7.68,1.88-11.38.85-.37-.1-.76.08-1-.19a16.34,16.34,0,0,0-3.89-3c1,1.9,0,2.67-.55,5.56a4.51,4.51,0,0,0-2.22-3.72s.1,2.33-3.86,4.74a2.52,2.52,0,0,0-1.82-2.45s-4.93,5.17-6.67,5.88c.56-1.61-.48-2-.48-2s-3.31,3.67-4.05,4l-2.63,1.19c.86-3-.49-9.13-.14-11.48.49.66,1.88,2,2,1.38.58-2.77,1.57-4.84,4.34-5.93.21-.12-.05-1,.16-1.16,1.79-1.05,3.73-.28,5.74-1,.95-.34,1.2-.76,1-1.64.31,0,.61,0,.91,0l2.19.9,2.52-.52,3.26-1.14,6.31,1.38,4.72-1.72,3.15.85,4.33-1.08,3.58-.46s3.46.83,3.83,1.23,5.76,7.77,5.64,11.27C160.68,46.39,157.14,44.68,158,45.81Z"/></g><g id="lighter_fur" data-name="lighter fur"><path class="cls-4" d="M137.28,127.91l-1.57-3,1.57.84v-2.2l1.38-3,2.83,1.75-1.25-2.88L138.61,117v-4.94l5.06,1.38a3.89,3.89,0,0,0,0-3.58l-2.33-5.5-.33,3.83-3.72-2.67v3.17l-2.28.67-4.67-1.83-3.83,1.67-8.64-.83-.07,1.5-3.71-.5v2.71h-3.25v2.63l-3,1.44-.83-2.69,1.5-1.37-.17-2.87,2-1-.83-2.33,6,.5a7.59,7.59,0,0,1-.42-3.23c.17-1.79,1.06-2.81-.5-3.75s-5.42.31-5.42.31,2.49-2.33,4.91-2.17a13.89,13.89,0,0,1,3.71.67l-3-2.83,3.83-.83-2.08-2.33,4.25-.67s1.17-3.17-.17-3.33a7.57,7.57,0,0,1-2.83-1.25s3.33-.75,2.17-2.42-2.14-3.17-2.14-3.17a17.85,17.85,0,0,1,4.53,2.08c1.94,1.63,4.94-.62,4.94-.62l-1.87-2.87s5.82,2,4-1.08c-2.67-4.67-9.67-8.92-9.67-8.92l5.33.92,1.5-.92L120,64.64s6,1.88,8.17,3.21A22,22,0,0,0,133,69.94s2.5.25,3,.75,1.33-2.5-1.5-4.67-5.67-2.83-6.33-4.17-5.33-2.67-5.33-2.67h3l4,1.33s2.75,1.67,4.25,2.33a53.68,53.68,0,0,0,5.17,1.67,34.09,34.09,0,0,1,3.67,1.58A1.92,1.92,0,0,0,144.5,66a15.31,15.31,0,0,0-1.75-2.92,44.21,44.21,0,0,0-4.33-3.67s6.33,1.92,8.5,4.08A11.15,11.15,0,0,0,150,66s1.17.42,1.33-1.37a25.18,25.18,0,0,0,0-3.79l1.17,1.5s2.67-1.33,2.83-2.5a20.73,20.73,0,0,0,0-3.33,10.24,10.24,0,0,1,1.83,2.33,16.55,16.55,0,0,1,1.17,5.79L161.07,66,163,64.64s.2-2,.35-4.29a5.92,5.92,0,0,1,2-3.83,5,5,0,0,0,.67,3c.83,1,3.67,1.5,3.67,1.5v5.67l3.17-.67,1.83-3.5v4.33s2.33,1,3.33-.83,2.33-4.5,2.33-4.5l1.83-.5,1,3.63A1.23,1.23,0,0,0,181.83,66a7.18,7.18,0,0,0,1.33,3.33s2.33-2.75,2.83-4.71,1.33-7.29,1.33-7.29.83,5.42.83,7.29,1.83-2,1.83-2a8.31,8.31,0,0,1,.83,4.17c-.17,2.33-1,3.08-1,3.08a4.59,4.59,0,0,0,3.67-1.42c1.5-1.67,1.05-2.43,2.46-3.87l3-3.12a12.55,12.55,0,0,0-2.17,4.5,11,11,0,0,1-4,6.5s3.44-1.16,4.17-2.58c2-3.92,4-4.58,4-4.58a43.36,43.36,0,0,0-2,4.58,12.19,12.19,0,0,1-1.83,3.25,3.54,3.54,0,0,0,3.85-.67,11.16,11.16,0,0,0,2.48-2.58s-.5,5.92-.83,9.25-3.5,5.33-3.5,5.33,4.5-.5,5.17-1.5a41.88,41.88,0,0,1,4.17-4s-1.33,4.67-2.42,5.5-2.75,2.17-2.75,2.17a8.31,8.31,0,0,1,5.17-.5A16.53,16.53,0,0,1,213.17,88a11.93,11.93,0,0,0-3.81,2.17,6.74,6.74,0,0,0-1.69,3.28s2.83-1.05,4.83,0,2.87,2.39,4.19,2.05,3.33-.67,3.33-.67A4.44,4.44,0,0,1,216.69,98c-2.69.5-7.33,1.5-7.33,1.5a9.07,9.07,0,0,1,4,1.33c1.67,1.17-2.33.67-3.17,2.5a9.06,9.06,0,0,0-.81,3.5s0-.83,2.08-1a23.11,23.11,0,0,1,3.73,0l-1.5,2.5,1.67.83L214,110.85a27.15,27.15,0,0,1,2.69,2.58A3,3,0,0,1,216,117s-1.83-3.15-3.17-2.31l-.5-2.62-3,1.38-1.19-3.25-2.08,1.88s-1.25-4-4.17-4.71-.9,2-.9,2-5.35-1.67-6.85.5-2.5,1-2.5,1,1.5-3.83-.83-3.17a24,24,0,0,0-4.83,2.17l1.67-4s-4,.67-4.5,4a28.68,28.68,0,0,1-1.33,5.5s2.5-.5,2.5-1a5.18,5.18,0,0,1,.17,2.83c-.33,1.17-1,3.38-1,3.38a5.47,5.47,0,0,0,3-2c1.17-1.58,3.5-5.17,3.5-5.17l-.5,3.56,2-2.65-.17,2.83,2.17-1.5-1,3.75-2.67,1.13-2.17,1.75.5,2,4.33-2-.67,3.41.5,2.19s-2.33-.9-2.83.85-4.33,2.18-4.33,2.18l-21.66,5.42Z"/><path class="cls-4" d="M209.36,150.56s.48,4.13,4.1,5.63a33.29,33.29,0,0,0,7.13,2l5.5.75v-2.25s.25,1.75,4.5,2.25,5.13,0,5.13,0v-1.37a9.83,9.83,0,0,0,2.63.75,15.36,15.36,0,0,0,2.5-.37,6.37,6.37,0,0,0-.57-2.37c-.55-1.12-1.93-3.62-2.93-3.5a7.24,7.24,0,0,1-2.5-.37l1-1.12s1.25-1.12,3.63,0,5.25-.5,5.25-.5-2.12-.5-2.5-1.25a4.56,4.56,0,0,1-.37-1.75s2.25.63,2.88,0-.62-3-.62-3,.63-.87,2.5-.75a4.83,4.83,0,0,1,2.5.63l-2.37-2.5s1-1.75,1.88-1.75h1.5s-5.12-2.25-9.25-2.12a31.94,31.94,0,0,0-6.5.75l-.75-1.37,2.63-2.12h-1.37l-8.23,2.48,4.1.77s-1.5,3.38-4.37,3.13-7.17,1.25-7.17,1.25l3.17,1s-2.24.89-3.17,1.13a13.31,13.31,0,0,1-4.46.38,11.25,11.25,0,0,0,4.46,2,5.28,5.28,0,0,0,3.54-.55s-1.77,2.41-2.69,2.63c-5.94,1.38-7.56-2.08-7.56-2.08a5.83,5.83,0,0,0,2.63,5.7,17,17,0,0,0,5.88,2.38s-4.87.38-7.5-1.12A15.31,15.31,0,0,1,209.36,150.56Z"/><path class="cls-4" d="M118.83,151.59s-.48,4.13-4.1,5.63a33.29,33.29,0,0,1-7.12,2l-5.5.75v-2.25s-.25,1.75-4.5,2.25-5.12,0-5.12,0v-1.37a9.83,9.83,0,0,1-2.62.75,15.36,15.36,0,0,1-2.5-.37,6.37,6.37,0,0,1,.57-2.37c.55-1.12,1.93-3.62,2.93-3.5a7.24,7.24,0,0,0,2.5-.37l-1-1.12s-1.25-1.12-3.62,0-5.25-.5-5.25-.5,2.13-.5,2.5-1.25a4.56,4.56,0,0,0,.38-1.75s-2.25.63-2.87,0,.63-3,.63-3-.62-.87-2.5-.75a4.83,4.83,0,0,0-2.5.63l2.38-2.5s-1-1.75-1.87-1.75h-1.5s5.13-2.25,9.25-2.12,3.65.4,6.5.75,5.13,3.13,8,2.88,7.17,1.25,7.17,1.25l-3.17,1s2.24.89,3.17,1.13a13.31,13.31,0,0,0,4.46.38,11.25,11.25,0,0,1-4.46,2,5.28,5.28,0,0,1-3.54-.55s1.77,2.41,2.69,2.63c5.94,1.38,7.56-2.08,7.56-2.08a5.83,5.83,0,0,1-2.62,5.7,17,17,0,0,1-5.87,2.38s4.88.38,7.5-1.12A15.31,15.31,0,0,0,118.83,151.59Z"/><path class="cls-3" d="M72.67,191.35a5.75,5.75,0,0,1,2.67-3.67s-1.67-1.17-2.5-.83.33-2,.33-2l-1.5-.83a11.86,11.86,0,0,1,3-4.17,14.42,14.42,0,0,1,5.5-2.33l-4.83-.5v-1.67l2.5-2.67-.17-1.5,2-2.5L78,168.35,73.83,171l-1.17-1.5.83-2.83,1.67.17,2.33-2.33-2.17-1-2.5-1.17,3.5-1.33h3l-3.67-2.17H72.83l-2.17-.67L72.5,156l.17-2.17-2.83.67-3-.33L64.33,159l-2.17,1-1.5,2.5-2,3,2.17-.5,2.5-.17L63,168l-2.17,2,.83,3-3,.17,4,1.83.83,2-.17,2.83L66.5,181l1.83-.17-2.17,1.83L66,184l2.83.5-2.5,1.5,3,.5-.5,2.17H72Z"/><path class="cls-3" d="M255,192.69l-1.67-2.5,1-1.5-.5-2.33-.17-2.33L252,180.35l-1.67-.5.67-1.67-.83-2,.5-1.83-3.17-1.17-1.33-2.33,2.67.17-2-2.67v-1.17l4.17,1.17v-1.5l-3.83-2.5,3-.83,2.67.33,1.5-1-2.67-1.5-3-.5,1.67-1.17,2.67-.17,2.67.17.5-1.83-2.83-2.33,5.67.33,4,2.33,1.67,3.17-3.5,1.83,1.33,1.67,2.17,1,.5,1.17-2.33,1.33,1.67,1.17h2.83l-.17,1.83-2,.83h-1.83a7,7,0,0,0,2.5,1.17c.83,0,2.67-.17,2.67-.17a4,4,0,0,1-2.33,1.83,25.64,25.64,0,0,1-5.5-.17l1.17,1.67,2.17.5-2,1.33-2.33.5h-2.5l-.5,1.33,1.83.5,2.67-.17-1.67,2.67-1.67,1,.67,1.83,2.83-1.17-2,3-2.5,1,1.5.67Z"/><polygon class="cls-3" points="89.08 114.19 86.33 110.69 81.33 109.19 83.08 107.44 88.08 105.69 84.58 103.44 87.58 102.94 89.58 102.19 89.83 99.94 92.08 98.69 95.58 98.94 99.08 98.19 98.33 100.69 95.33 101.69 97.83 103.44 103.08 103.19 99.58 105.69 95.33 106.69 97.33 107.69 99.58 108.69 96.83 110.19 92.58 109.94 89.83 110.19 92.33 111.94 94.33 112.19 89.08 114.19"/><polygon class="cls-3" points="237.08 113.44 239.83 109.94 244.83 108.44 243.08 106.69 238.08 104.94 241.58 102.69 238.58 102.19 236.58 101.44 236.33 99.19 234.08 97.94 230.58 98.19 227.08 97.44 227.83 99.94 230.83 100.94 228.33 102.69 223.08 102.44 226.58 104.94 230.83 105.94 228.83 106.94 226.58 107.94 229.33 109.44 233.58 109.19 236.33 109.44 233.83 111.19 231.83 111.44 237.08 113.44"/><polygon class="cls-3" points="243.58 127.94 246.33 124.44 251.33 122.94 249.58 121.19 244.58 119.44 248.08 117.19 245.08 116.69 243.08 115.94 242.83 113.69 240.58 112.44 237.08 112.69 233.58 111.94 234.33 114.44 237.33 115.44 234.83 117.19 229.58 116.94 233.08 119.44 237.33 120.44 235.33 121.44 233.08 122.44 235.83 123.94 240.08 123.69 242.83 123.94 240.33 125.69 238.33 125.94 243.58 127.94"/></g><g id="snout_shape" data-name="snout shape"><polygon class="cls-5" points="195.96 118.69 198.33 118.06 198.33 119.94 198.33 121.06 199.71 122.31 202.21 121.56 204.58 120.19 202.46 119.19 202.96 118.06 206.08 115.94 203.71 115.19 202.08 115.19 202.96 114.06 204.08 114.06 204.58 112.94 202.58 112.06 199.33 112.06 197.71 114.19 197.33 115.69 196.96 117.19 195.96 118.69"/><polygon class="cls-5" points="125.33 119.69 123.58 120.56 121.83 120.12 120.46 118.19 119.08 117.19 116.58 117.19 118.71 116.06 120.96 114.94 119.21 114.06 122.21 113.44 124.71 113.44 126.71 115.06 127.21 117.19 125.33 117.19 126.58 118.69 124.58 118.44 125.33 119.69"/></g><g id="snout"><path class="cls-5" d="M137.25,129.38l-2.75,1-2.33.83V133l-2.67,1-1.67,1.67h-1.67l-.83,2.17v1.83l2.33,1.17-1.17,1.5-1.17,3.17v3.33a12.94,12.94,0,0,1,1,4.67c-.17,1.83-2.67,4.33-2.67,4.33s-2.17,2-2.17,3.33-1.67,6.17-1.67,6.17l-3,2.67-1.33,3v2.67l-3.17,2.67-4.83,4.17-1.33,3.17a19.06,19.06,0,0,0,0,4.5A7.91,7.91,0,0,1,106,195c-.69,2-1,3.17-1.69,2.83s-1.83-2.17-2.17-1,1.5,6,1.5,6l1.83-1.5-.83,5.5-1.83,3.33h4.33s-2.17,2.33-1.17,3.17,4.33,1.33,4.33,1.33l-2,1.83s1.33,2.67,2.67,3,4.83.17,4.67,1.17-1.17,2.17-.5,2.5.83,1.17,2.17,1.17h2.56v2.5h1.6s.5,2.17,1.67,2.17h4.33l-1.67,1.67s1,1,1.5,1H130a8.66,8.66,0,0,1,2.67,2c1.17,1.33,7.14,21.13,27,21.17,23.5,0,29-17.33,29-17.33l1.17-1.5-1.5-1.17,1.5-.83,2.67.17v-2.33l4.17.17v-1.5L195,229.35l4.83.17,1.83-3.33,3.5-1.67,2.17-1.17-1-2.17,2.33-1.33,2.5.5,2.67-2.33v-3.17l2.5-1.83s3.17-1.83,3.17-4-1.67-7.5-1.67-7.5l1.67.83a3.33,3.33,0,0,0,0-3.5c-1.17-1.67-2-2.67-1.5-5s2.17-6-1.5-11-5.52-5.94-8.17-9.17c-5.33-6.5-4.17-8.33-7.67-13.33s-3.33-13.67-3.33-13.67a2.48,2.48,0,0,0,.5-2.33,15.26,15.26,0,0,0-1.17-2.17l.5-1.67a4.16,4.16,0,0,0,0-3c-.67-1.33-3.67-3.33-3.67-3.33l-2.17-.17-.17-2.83-2.67-.83-3.67-.83,1.67-2.5-3,.83-.17-2.17s-2.83-.83-4.17,0a24.54,24.54,0,0,1-5.17,1.67l1.67,1L172,129.69l-3.67,1.83-1-1.67-1.17,1.83-2.17,1.5-2.93-1.5L160,129.52l-.5,2.67L156.17,130l-3.33-.5-.5,1.5-2-2-3.67-2.83L143,124.35l-3.83,2.83-2.5-.33Z"/></g><g id="light_snout" data-name="light snout"><path class="cls-6" d="M120,182.44c-6,0-7.32,6.62-8.87,6-1.25-.5,0-4.14,2.63-7.12,6.42-4.58,4.46-7.4,5.63-9.37,4.33-2.92,3.8-8.18,6.13-10.5,2.08-2.3,1.37-1.6,2.13-3.25,1.46-3.2,2.09-3,2.12.75,0,1.75-1.53,4.52-1.62,6.5s1.25,4.13-.62,9.75c-.82,2.45-1.73,2.32-2,4C125.08,181.31,122.21,182.44,120,182.44Z"/><path class="cls-6" d="M195.58,153.44c.75,4.75,3.88,6.25,5.38,11.25s2.71,6,2.71,6,3.17,2.17,3.33,3.33-.67,2.33.83,3.33a52.29,52.29,0,0,1,4.5,3.83l-2.33.67-2.67-.33s.17,2.67,1.33,2.83-1.5,2.5-3.33,2.17-2.72-5.5-3.37-6.58c-1.75-2.87-5.67-5-5.5-8.12s-.31-5-2.12-9C192,157.56,195.3,151.64,195.58,153.44Z"/><path class="cls-6" d="M174.5,172c-1.83-.67-5.33-.5-5.83,0s-1.33,2.67-.17,2.67a15.11,15.11,0,0,1,3.83.17c1.33.33,2.33-.67,3.17,0s3.17,1.5,3.5.83-1.5-1.83-2.5-2.5A21.1,21.1,0,0,0,174.5,172Z"/><path class="cls-6" d="M154.17,172.85c-1.33.33-3.5.33-4.67,1.5s-4,2.33-3.67,1a6.77,6.77,0,0,1,3.17-4c1.5-.67,3.33-.17,4.67-.17s2,.67,2,1.17S154.17,172.85,154.17,172.85Z"/></g><g id="dark_snout" data-name="dark snout"><path class="cls-7" d="M170.83,251.35c-.58,0-1.45.86-2,.83a2,2,0,0,1-1.5-1s-.75-2.06,0-2.94c.27-.32,4.18-1.38,5.81-2.06a22.59,22.59,0,0,0,5.75-4l-12.44,3.38-19.31-1.69a42.1,42.1,0,0,0,5.94,3c1.61.52,3.95.92,4.25,1.25.69.75-.17,3.65-.17,3.65s-1.75,1.25-2.67.67-2-1.25-2-1.25l-2-.33-1.33.83-1.17-.83-7-4a25.08,25.08,0,0,0,18.66,8c10,0,16.79-3.15,21.23-6.78l-2.26,1S172.46,251.27,170.83,251.35Z"/><path class="cls-8" d="M205.88,213.69s-3.87,4.63-5.54,4.25a11.84,11.84,0,0,0-4.92-.33c-1.5.42-1.87.5-2.71.21-1.37-.62-.87-2.12-1.37-3s-3-1.12-3-1.12-3-1-2.75-3.25a37.94,37.94,0,0,1,1.25-5.5,4.08,4.08,0,0,0,2-.75,3.35,3.35,0,0,0,1.46-2.25c-.12-.5-1.21-4.25,0-5.25s4.75-6.75,3.5-9.25-.5-5-.75-6.75-1-5.5-3-5.5-2.75-2-2.75-4.5,0-7.25-1.75-9-5.5-4.25-3.25-4.75,4,1,4.75,0,0-3,1.5-3.75-.25-3.25,0-4.75,2.75-.75,2.75-2.75-.5-5.75,0-7-1-3.25.25-4.25l.45-.36-.7-.05-.17-2.83-2.67-.83-3.67-.83,1.67-2.5-3,.83-.17-2.17s-2.83-.83-4.17,0a24.54,24.54,0,0,1-5.17,1.67l1.67,1L172,129.69l-3.67,1.83-1-1.67-1.17,1.83-2.17,1.5-2.93-1.5L160,129.52l-.5,2.67L156.17,130l-3.33-.5-.5,1.5-2-2-3.67-2.83L143,124.35l-3.83,2.83-2.5-.33.58,2.53-2.75,1-2.33.83V133l-1.56.58.06.08s2.83,1.83,2.17,2.67a25,25,0,0,0-1.67,2.67s3,2.5,2.5,3.5-1.5,2.5-1.5,2.5l-.17,2.67,2,.33s.67,2-.17,2.17-.33,2-.33,2,3.17,1.33,3.17,2-2,2.5-2,2.5-.67,2,.33,2.17.5,2.5.5,2.5l1.67-.5s2.17-3.5,2.67-3-.83,3.33-.83,3.33-4.33,4.67-3.67,5.67.67,3-.17,3.67-3.25,2.67-3.08,4a11.36,11.36,0,0,1-.08,4.17c-.33.83-2,1.83-1.83,2.5s1.5,2.17,1.17,3S129,186.79,129,189c0,2.5,4.83,6.17,4.83,8.67s-.64,5.24-.33,5.67c.83,1.17,2.17.17,2.67,1s2.17,6.5.83,7.67-4.17.17-4.33,1.33-.83,4-2,4.17-2.83-1.17-3.67-.67-2.31,1.21-2.92.54c-1.67-1.83-3.07-.54-3.75-2.12-1.21-2.83-2.93-2.76-3.12-4.54-.54-1.83-3.12-2.25-3.12-2.25a5.67,5.67,0,0,1,2.08,3.13c.15,1.26,1.13,1.63,1.79,2.46.79.5,2,2.3,2.92,3.17s1.15,1.94,1.67,2.58c.83.17,1.79,1.46,4.63,2.46a28.57,28.57,0,0,0,8.5-.33,13.31,13.31,0,0,1,7.17.42c1.67.5,7.67,3.71,9.33,3.71s4.46,1.79,7.38.83a8.61,8.61,0,0,0,2.5-1.46,3.41,3.41,0,0,0,2.75,1.71s5.57-.54,6.87-1.13c4.83-2.17,4.41-4.68,7.58-4.75,3.83-.08,6.54,2.59,10.08,3,1.77.2,3.3-1.36,4.25-1.5,2.71-.41,5.16-.58,6.75-1.67,1-.71.56-1.31,1.13-2.12C205.75,217.1,205.88,213.69,205.88,213.69Z"/></g><g id="Layer_25" data-name="Layer 25"><polygon class="cls-9" points="146.21 168.44 147.83 166.31 150.21 166.56 150.58 164.56 153.08 164.31 153.21 163.44 154.21 161.69 150.58 161.19 152.46 159.81 151.21 158.81 153.08 157.31 151.96 155.31 152.83 152.31 152.96 149.19 153.83 147.94 152.71 147.44 150.83 147.19 148.96 147.06 149.83 145.06 148.83 143.19 150.46 141.69 150.58 139.81 149.96 138.94 148.33 136.44 151.08 135.56 152.58 134.69 154.08 131.56 153.46 130.19 153.79 129.66 156.19 130.02 159.5 132.16 160 129.54 161.08 131.71 163.98 133.21 166.23 131.64 167.33 129.89 168.3 131.52 170.56 130.39 171.71 130.94 171.08 133.31 172.33 135.06 171.83 136.94 174.08 137.69 172.96 140.31 170.71 142.81 172.21 144.69 170.83 146.56 168.83 147.56 167.21 148.69 164.83 148.44 164.71 150.19 167.08 151.06 167.08 152.44 169.96 154.06 171.33 154.56 169.83 156.31 168.33 156.56 168.96 157.94 171.71 159.19 172.21 160.69 170.46 161.31 170.71 162.94 173.08 164.19 172.71 165.69 174.21 166.94 175.96 167.94 177.33 167.31 179.71 168.94 181.58 169.06 180.58 172.06 182.08 172.31 181.71 173.69 183.71 175.19 183.08 176.56 185.08 177.44 184.21 178.81 185.46 179.44 184.71 180.81 181.58 181.44 142.96 180.31 140.21 178.69 139.83 177.69 141.33 177.19 140.21 175.56 141.46 174.81 141.33 173.44 142.58 172.56 141.33 171.44 142.21 170.81 142.08 169.31 143.96 168.69 146.21 168.44"/><path class="cls-10" d="M176.55,174.23a3.2,3.2,0,0,0-1.72-.92c-1.21-.7-12-.39-14.93-.32-2-.11-5.7-.3-6.36-.3-1.33,0-3.17-.5-4.67.17a6.77,6.77,0,0,0-3.17,4c-.33,1.33,2.5.17,3.67-1s3.33-1.17,4.67-1.5c0,0,5.29-.11,7.45-.4,3.38.28,9.7.75,10.67,1.18,1.25.56,2.6.19,3.3,1s2.67,1.61,3.11,1S177.42,175.06,176.55,174.23Z"/></g><g id="Layer_21" data-name="Layer 21"><path class="cls-7" d="M200.33,217.94a11.84,11.84,0,0,0-4.92-.33c-1.5.42-1.87.5-2.71.21-1.37-.62-.87-2.12-1.37-3s-3-1.12-3-1.12-3-1-2.75-3.25a37.94,37.94,0,0,1,1.25-5.5,4.08,4.08,0,0,0,2-.75,3.35,3.35,0,0,0,1.46-2.25c-.12-.5-1.21-4.25,0-5.25s4.75-6.75,3.5-9.25-.5-5-.75-6.75-1-5.5-3-5.5c-.21,0,1.33,3.83.08,7.08s1.08,5.75-2.08,7.48-.38,5.93-3.82,7.74a15.8,15.8,0,0,1-1.83,2.58,27.32,27.32,0,0,1-9.88,7.28c-5.09,4-11.47,5.83-17.67,3.2-5.06-2.15-8.62-6.62-13-9.83a11.58,11.58,0,0,1-4.65-6.45,5,5,0,0,1-1.13-4.4c-.14-.65-2.44-.16-2.89-2.1s.25-3.67.42-5.92c0-.64-.33-6.46-1.37-6.21,0,2.46-.13,3.12-.34,3.13-.41.81-1.94,1.77-1.78,2.41s1.5,2.17,1.17,3S129,186.79,129,189c0,2.5,4.83,6.17,4.83,8.67s-.64,5.24-.33,5.67c.83,1.17,2.17.17,2.67,1s2.17,6.5.83,7.67-4.17.17-4.33,1.33-.83,4-2,4.17-2.83-1.17-3.67-.67-2.31,1.21-2.92.54c-1.67-1.83-3.07-.54-3.75-2.12-1.21-2.83-2.93-2.76-3.12-4.54-.54-1.83-3.12-2.25-3.12-2.25a5.67,5.67,0,0,1,2.08,3.13c.15,1.26,1.13,1.63,1.79,2.46.79.5,2,2.3,2.92,3.17s1.15,1.94,1.67,2.58c.83.17,1.79,1.46,4.63,2.46a28.57,28.57,0,0,0,8.5-.33,13.31,13.31,0,0,1,7.17.42c1.67.5,7.67,3.71,9.33,3.71s4.46,1.79,7.38.83a8.61,8.61,0,0,0,2.5-1.46,3.41,3.41,0,0,0,2.75,1.71s5.57-.54,6.88-1.12c4.83-2.17,4.41-4.68,7.58-4.75,3.83-.08,6.54,2.59,10.08,3,1.77.2,3.3-1.36,4.25-1.5,2.71-.41,5.16-.58,6.75-1.67,1-.71.56-1.31,1.13-2.12,4.29-1.87,4.42-5.29,4.42-5.29S202,218.31,200.33,217.94Z"/></g><g id="black_fur" data-name="black fur"><path class="cls-11" d="M199.58,136.31s-1.25-2.52-2.25-3.2a2.72,2.72,0,0,0-2.5-.55c-.67.25-.67,1.25-.67,1.25a13.39,13.39,0,0,1,3,2.5,11.66,11.66,0,0,1,1.75,3.38h3l.92-1.75s-.37-1.25,1.38-1.12a3.1,3.1,0,0,1,2.47,1.5V136s.46-1.13,2.68-.63a13.3,13.3,0,0,1,4.06,1.75l3.08.17-1.33-2.17s-1.67-2.32-.67-2.83a2.39,2.39,0,0,1,2,0l-1.75-4.37a6.1,6.1,0,0,0,1.75,2,17.14,17.14,0,0,0,2.67,1l-1.83-3a15,15,0,0,1-1.33-3c-.08-.78-.17-1.61-.17-1.61l-.75-1h-1.42l-1.33-1.21-1.92-.75,1-1.75s-1.22.5-2.08.92-1.77.83-1.77.83l-2.5-.33L201,121.35l-2.77.42-.67,1-.92,3s3,1.33,3.5,2.58,1.46.92.85,3.67c-.07.33-2.28-1.78-5.06-2.25,3.34,2.13,4.65,3.85,4.58,4.08A14.81,14.81,0,0,1,199.58,136.31Z"/><path class="cls-11" d="M127.58,124.92a5.76,5.76,0,0,0-2.33,2.35c-.58,1.42,0,4.5,0,4.5s-2.75.58-2.5,2.42,2.41,1.42,2.41,1.42-.91,1.83-1,2.17a17.54,17.54,0,0,0-.08,1.92s-4.61-1.42-6.8-1.92A45.89,45.89,0,0,0,112,137s.42-.58,2.5-.67,2.08-.58,2.08-.58a3.64,3.64,0,0,0-3.08-.83,7.34,7.34,0,0,0-3.25,1.5l-2.67.58s1.83-2.08,1.33-3.67-1.33-1.58-1.33-1.58a3.12,3.12,0,0,1,1.5-.83c.75-.08.83-1.33-.5-.83a13.83,13.83,0,0,0-2.25,1.07h-1.58a35.6,35.6,0,0,0,1.67-3.15c.58-1.34.42-4,1.58-4.67l3.67-2.08a2.92,2.92,0,0,1,2.41-1.83c1.75-.08,4.09,1.58,5.59,1.5s2.42,2.08,3.67,2.42S127.58,124.92,127.58,124.92Z"/><path class="cls-11" d="M107.67,41.19l-1.33,2.67h-1.58v3.67s-2.16,1-2.62,0a17.63,17.63,0,0,0-2.29-2.94,17.8,17.8,0,0,0,0,4.28l.83,2.5-3.83-1.5a25.8,25.8,0,0,1,0,3.67,2.77,2.77,0,0,0,.83,2s-3.5-.67-3.83-1.5-1.17-.33-1.17-.33l1,3.5-.17,2.5-1.5,4L91,66l-2.17-1.83L85.33,64l1.83-1.67-.67-3.67,1.67-1.83,1-2-.83-2.67-3,2L83.5,50l3-.17-.83-2.67-3.83-1.83L80,42.19l2.17.17,2,2.5,3.33,1L89,43.52l-1.83-.67,2.5-1.67.33-3.5,5.17,4,2.67,1.17-.33-2,6.17-.33Z"/><path class="cls-11" d="M74.33,53.85a5.33,5.33,0,0,0,.83-3.17C75,49,73,48,73,48l2.17-1L73,45.85s-.42-2-3.42-4.17a12.68,12.68,0,0,0-6.06-2.37l1.65-2.62,2.33-1.33L70.33,33l3.33,1.5,2-.17,1,3.33v3.5l5.5,1.17-1.33-3,3-4.33-2.67-.33S80.94,31.15,80,30l-2.67-3.21,0-3.88S75.72,20,74.09,16.76c-3.76-4.07-7.63-4.07-7.63-4.07-1.5,0-4.87-1.25-10.62.67-7.11,2.37-7.54,4-11.33,5s-4.87-.54-8.33-.17a16.9,16.9,0,0,0-6.33,2.17l4.38.46,2,.88L33,23.35l-1.33,1.5c4-1.29,6.5-.33,6.5-.33l.83,2-1.33,3,3-.17,1,1.5-7,5.5,3.67-.67S41.54,33.6,43,33.52a2.11,2.11,0,0,1,2,1.33,9.53,9.53,0,0,0-5,2.83c-2.17,2.38-6.67,2.67-6.67,2.67s3.42,3.58,6.83,2.75c6.75-1.5,12.17,6.75,12.17,6.75l-7.75-.58L52.17,53s0,.67-.17,3a4.19,4.19,0,0,0,1,3.33s5.83-7.28,9.42-8.83,8.33-1,10,0A5.24,5.24,0,0,1,74.33,53.85Z"/><path class="cls-11" d="M258.17,52.19a5.33,5.33,0,0,1-.83-3.17c.17-1.71,2.17-2.67,2.17-2.67l-2.17-1,2.17-1.17,4-6.33,3.5-2.17H262.3L260,34.35,257.14,32l-3.33,1.5-2-.17-1,3.33v3.5l-5.5,1.17,1.33-3-3-4.33,2.67-.33s.23-3.54,1.17-4.67l2.67-3.21,0-3.88s1.59-2.92,3.21-6.17c3.76-4.07,7.63-4.07,7.63-4.07,1.5,0,4.88-1.25,10.63.67,7.11,2.37,7.54,4,11.33,5s4.88-.54,8.33-.17a16.9,16.9,0,0,1,6.33,2.17l-4.37.46-2,.88,3.17,1.67,1.33,1.5c-4-1.29-6.5-.33-6.5-.33l-.83,2,1.33,3-3-.17-1,1.5,7,5.5-3.67-.67s-3.21-2.08-4.67-2.17a2.11,2.11,0,0,0-2,1.33,9.53,9.53,0,0,1,5,2.83c2.17,2.38,6.67,2.67,6.67,2.67s-1,2-4.37,1.21c-6.75-1.5-8.93,6.63-8.93,6.63L284.67,50l-3.67.33s0,.67.17,3a4.19,4.19,0,0,1-1,3.33s-6.5-6.28-10.08-7.83-8.33-1-10,0A5.24,5.24,0,0,0,258.17,52.19Z"/><path class="cls-11" d="M239.08,25.94s-2.5,7.25-1.5,8.75,1,3.13,1.5,4.5,4,5,4,5-3.25,2.5-2.08,4.17a15.11,15.11,0,0,0,2.64,2.83,3.67,3.67,0,0,0,0,4.67c1.86,2.67,5.53,3.33,5.53,3.33s-.17,4.17,1,5.67,4.17,2.83,4.17,2.83l1.17,3.67h3.17l-1.83,1.5,3,1-2.17,1.5L261,76.69l-2.33.83,3.5,2.17H258.5l-2.17,1.83,2.17,1.33L257,85.52h2.67l-.33,1.83,2,1.67.83,3.33,1.67,2.5s-3.67,1.83-4.5,3.33-3,5.17-3,5.17,1.5-4.83,1.33-6.5-.83-5.83-.83-5.83-.17,4.5-1,5.33l-3.17,3.17s2-2.5,2-4.83a58.69,58.69,0,0,0-1-7.5l-1.83-4.67s-1.65,3.67-1.24,5.17-.76,5.17-.76,5.17-1-5.83-1-7.33a14.56,14.56,0,0,0-1-4l-2,4.67-.5-6.67-2.83-1.83-2.33,3.5a50,50,0,0,0,1.17-7.83c0-2.67-2.5-8.71-2.5-8.71a31.5,31.5,0,0,0-3,3.21c-.67,1-2.5,3.5-2.5,3.5a19.31,19.31,0,0,0,0-6.71,30.68,30.68,0,0,0-1-4.29L230,61.52l1.67-6.83L226.17,56s.17-3.83.83-4.17a10.64,10.64,0,0,0,2-2.33,7.73,7.73,0,0,0-2.83.67,9.15,9.15,0,0,0-2.5,1.67V45.19L221,48.69l-1.83-3.83s-2-1.17-2.33-2.5a7.11,7.11,0,0,1,0-2.83l2.33,1.67V39l2.17,2a8,8,0,0,1,5.33-.5,8.69,8.69,0,0,0,4.5.33l2.83-2a11.64,11.64,0,0,0,1.67-4.5C235.83,32.19,239.08,25.94,239.08,25.94Z"/><path class="cls-11" d="M55.17,110.44S54,107,52.33,105.6c-2.68-2.21-1.33-4.66-.87-4.48C49.38,101,48,99.62,47.2,97.29a10.27,10.27,0,0,0-5-4.4c2.5-1.66,1.52-4.33.08-5.58-.29-1.08,10.06,4,12.25,7.5,1.63-1.19,0-8.37,0-8.37C56,86.8,60,89.06,61.4,92.62a6.36,6.36,0,0,0,.5-5.69l5.19-3,.69,3.5s2.23-5.31,3.14-6a24.86,24.86,0,0,0,3.43-3,4.41,4.41,0,0,0,3.5.5c2.17-.5,3.25-3.5,3.25-3.5a5,5,0,0,1,0,4.25c-1.08,2.13-2.5,1.75-2.75,3.25S80,88.69,80,88.69s-2.67.75-3.42-1a26,26,0,0,1-1.25-4.5s-2.75,4.5-2.75,7.75,1.75,8.5,1.75,8.5-4.75-1.75-5-3.5-2.25,2-1,4.75,2,4.25,2,4.25-2.48,3.17-4.23.92-8.27-2.67-8.27-2.67c3.81,1.16,5.9,2.83,5.5,5.25C62.46,107.55,56.58,107.81,55.17,110.44Z"/><path class="cls-11" d="M168.23,276.69s-4.29-2.75-6.22-2.5a14,14,0,0,1-3.59,0,4.64,4.64,0,0,0-3.3-2.48c-2.62-.67-15.33,4.83-16.12,4.83h-3.62s-5.88-2.5-7.22-3.17-2.83-4.17-2.83-4.17a11.89,11.89,0,0,1-3.17,1.33c-.83,0-1.83-1.33-1.83-1.33l1.33-2a8.3,8.3,0,0,0-3.17-.83c-1,.17-2.67-1.5-2.67-1.5a36.73,36.73,0,0,0-3.5-3.83c-1.67-1.5-3.5-4.83-3.17-6.17s-5-2.17-5-2.17-4-1.17-4.5-2.67,1.5-8,1.5-8,3.25-2.17,1-2.17-6,2.33-6,2.33-4.5-8.12-1-12.67c.87-1.13-2.5-2.33-3-2s-2.83-.83-2.83-.83-5.5-1.58-7.75-4.67a19.47,19.47,0,0,1-3-6.21l3.25-1.87s-1.5-4.75-3.25-4.37-5.75-4.25-5.75-4.25v-2.75s-5.25.28-7-4-4.75-11-4.75-11l1.5,11-4.25,4h5.25s3.5,2.63,3.5,5.63-4.75,7.63-4.75,7.63,7-.87,9.5,2.38-1.5,3.83-1.5,3.83l-4.25,6.6s7.5-3.19,8.5-1.44-.5,4.25,1.75,10,2,15.75,2,15.75,4.25-2.5,7,.75,5,15,5,15c-.75,5-5.25,8-5.25,8s-7.25-3.75-10-17.5c-3.75,9.5-1.5,24.75.75,27s4.5,12,4.5,12,3-3.5,6-2.5,5.25-3.5,7-3.5,8.79,4,8.79,4l-3.29,6.25-3.25,4s7.25-1.25,9.25-3.5,5.75,0,5.75,0,1.14,7,2.7,7.5,5.05,2.25,5.05,2.25,1.5-6.25,3-7.25,9.75,1.75,10.75,3,2.7,7.5,2.7,7.5,1.88-7.5,4.22-7.75,11.33.75,12.33,2.25,3.78,15.5,3.78,15.5,1.07-14.5,6.9-16.75,11.66,1.5,12.74,1.5,2.86,8.5,2.86,8.5,6.86.75,6.66,2.5,3-3.75,4-8,5.52-9.25,9-10.25,9.25,7.25,9.25,7.25a54.44,54.44,0,0,1,5.5-1.5c.75,0,6,4.25,6,4.25s-1.68-7.61,0-8.5c4.25-2.25,10,3,10,3s-5.25-10-4-11.75a8.31,8.31,0,0,1,4-2.5l3,1.5v-5s5.25,4.25,6,5.5,4,5,4,5v-10a5,5,0,0,1,5-5.25l6.75,4.75s-1.25-8.5,0-9.5,5.75,1.75,5.75,1.75,1.75-4.5,1.5-6.75-4.25-5.25-5.25-5.25-5.5-10.5-10-7.5-6.25,13.25-6.25,13.25-1-9.75-2-11.75-5.5-5.5-5.5-5.5,1.5-7,6.25-6.75a17.56,17.56,0,0,1,8.25,2.67s5-1.92,4.5-6.17,5.25-5.25,5.25-5.25a20.92,20.92,0,0,1-3.25-6c-1.5-4,4.5-8.81,4.5-8.81h3.52v-6.44s-3.77-5.25-2-9.5,8-10.12,8-10.12a11.47,11.47,0,0,1,9.25-1.77,40.19,40.19,0,0,1,9.25,2.9s-2-6.73-3-9.24-4.75-4.84-4.75-4.84,2.25,4.1.25,4.84-5.75-1.8-8.25-.28-10.5-1.73-10.5-1.73-2.25,6.41-4.5,6.08-3,2.27-3,2.27l2,3.15-5.75-1.37,2.25,2.75h-4l2,2.87-4.5,1.38a12.62,12.62,0,0,0-1,4.88c0,2.75-4.25,9-5,8.75s-7.5,1.25-7.5,1.25l1.5,4.19-3,1.06.75,3.25-5.5-1.36s4,3.36,4,4.36.25,4,.25,4l-4-1v3l-4.75-.25,3.25,6.5-4,.5-.25,4-3.25,2.17-3.5,3.33-2.75-1.45-3.5-1.89-2,3.83-3.5,1-.75,3.5-3,.5-1.25,2.5-4,1-2.25,4.5-3.56,1.75-5.19,1.5-2.5-3.75-3.75-1.75-1.37,3.25v3.75Z"/></g><g id="Layer_13" data-name="Layer 13" class="cls-12"><path class="cls-5" d="M121.28,127.22a4.51,4.51,0,0,1-1.72.73,1.45,1.45,0,0,1-1.48,1.25,1.43,1.43,0,0,1-1.42-1,1.44,1.44,0,0,1-.33-.56,4.34,4.34,0,0,1-1.61-1.27,4.31,4.31,0,0,0-.64,1.75c-.08.75,1.25.5,1.25.5a2.56,2.56,0,0,0,1.83,2.42,4.82,4.82,0,0,0,3.33-.5,3.42,3.42,0,0,0,1-2.33A2.61,2.61,0,0,0,121.28,127.22Z"/><path class="cls-5" d="M207.26,127.55a1.62,1.62,0,0,1-3.2,0,4.4,4.4,0,0,1-1.46-.75,4.22,4.22,0,0,0-.67,1.84c0,.58.75.67,1.08.67s1.08,1.58,3,1.58a3.5,3.5,0,0,0,3.33-3.17,1.94,1.94,0,0,0-.3-1.34A4.35,4.35,0,0,1,207.26,127.55Z"/></g><g id="eye_highlights" data-name="eye highlights"><ellipse class="cls-13" cx="118.49" cy="125.64" rx="0.7" ry="1.15" transform="translate(-19.65 229.28) rotate(-83.56)"/><path class="cls-14" d="M119.9,133.19a7.48,7.48,0,0,1-4.37-.37,4.37,4.37,0,0,1-3-3.81,8,8,0,0,0,3.62,3.22,9.42,9.42,0,0,0,5-.16s1.28.25.72.63A5.94,5.94,0,0,1,119.9,133.19Z"/><ellipse class="cls-13" cx="205.81" cy="125.4" rx="0.68" ry="1.34" transform="translate(58.11 315.84) rotate(-83.56)"/><path class="cls-14" d="M204.06,132.95a7.48,7.48,0,0,0,4.38-.37,4.37,4.37,0,0,0,3-3.81,8,8,0,0,1-3.62,3.22,9.42,9.42,0,0,1-5-.16s-1.28.25-.72.63A5.94,5.94,0,0,0,204.06,132.95Z"/></g><g id="mouth"><path class="cls-15" d="M187.83,223.19s.33,12.33-6,17.17-12.5,5.83-19.5,5.67-16,0-21.83-6.83a22.55,22.55,0,0,1-5.67-16H139a13.3,13.3,0,0,0,10.33,7.67c7.83,1.17,20.59.87,25.17-.5,8.33-2.5,9.83-7.17,9.83-7.17Z"/></g><g id="mouth_copy" data-name="mouth copy"><path class="cls-3" d="M187.83,223.19s.33,12.33-6,17.17-12.5,5.83-19.5,5.67-16,0-21.83-6.83a22.55,22.55,0,0,1-5.67-16s2,13.13,7.38,13.63c5.38,1.25,10.75-3.75,19.63-3.62,8.55.12,16.45,4.18,18.88,3.5C188.08,234.61,187.83,223.19,187.83,223.19Z"/></g><g id="teeth"><polygon class="cls-16" points="143.83 228.44 141.83 220.69 149.46 224.56 151.33 231.06 147.33 231.06 143.83 229.69 143.83 228.44"/><polygon class="cls-17" points="174.15 231.19 175.33 223.06 181.08 220.69 180.52 228.43 174.15 231.19"/></g><g id="mouth_copy_2" data-name="mouth copy 2"><path class="cls-14" d="M161.67,234.06C139,234.06,139,223.19,139,223.19a13.3,13.3,0,0,0,10.33,7.67c7.83,1.17,20.59.87,25.17-.5,8.33-2.5,9.83-7.17,9.83-7.17S184.33,234.06,161.67,234.06Z"/></g><g id="nose"><path class="cls-15" d="M168,220.69c2-2.17.67-3.17,3.33-4.67s10.67-7.33,14-13.83,3.83-12.67,1.67-16.33-9.92-12.5-25.42-12.17-23.08,8-24.92,12.83c-1.32,3.48-1.84,11.12,2.33,16.83,3.21,4.4,9.32,9.86,14,13.08,1.44,1,1.58,3.64,3.19,4.69C158.07,222.37,166,222.85,168,220.69Z"/></g><g id="Layer_27" data-name="Layer 27"><path class="cls-18" d="M169.79,185.69c-1.12,0-1.87-.87-2.5-.75s-1.47,1-2.87.75a9.3,9.3,0,0,1-4.62-2.25s-2.62.17-2.62,1.15-3.25,0-3.25,0-2.25-2.15,0-3a15.69,15.69,0,0,1,8.25-1c3.25.5,7,1,7.63,1.88S170.92,185.64,169.79,185.69Z"/></g><g id="Layer_6" data-name="Layer 6"><path class="cls-3" d="M185.21,200.79s-3.25,5.65-4.12,4.27,1-5.29-.67-4.46-2.5.19-5.66.19c-2,0-4.4.17-4.4.17-.52,1.82-2.56,1.9-2.77-.48-.25-3.21,4.27-2.85,4.25-2.92s11.43,1.57,12.56.38c1.34-1.41,1-4.27-.62-6.25a11.2,11.2,0,0,0-4.81-2.94c-2.67-.77-4.25-2.23-7.31-2.25-2.05,0-4.28,2-5.62,3-3.35,2.6-1.79,2.79-4.31,2.81-2.33,0-2.78-1.15-5-3.37-5.08-5-16,1.5-16,1.5s-2.65,5.5-.77,6.69,22.13-1.37,15.4,4.77c-.66.16-1.25,0-1.42-.82-.79,0-2,.07-4.54.11-5,.08-5.5-2.75-5.5-2.75l-1.5.5a4,4,0,0,0,.17,1.85c.33,1.15,1.38,4-.25,3.65s-3.88-4.07-4.79-3.94c-1.41.2,6.11,9,8.88,11.1,1.78,1.39,4.91,3.95,5.25,4.29,4,4.1,2.36,6.29,10.28,6.29,10,0,7.59-5,10.59-6.86a61.58,61.58,0,0,0,8.63-6.94C186.46,202.44,185.21,200.79,185.21,200.79Zm-23.5,15c-7.88,0-6.5-6.25-6.5-6.25s.78,4.5,6.4,4.5c6.49,0,6.35-4.5,6.35-4.5S170.21,215.81,161.71,215.81Z"/></g><g id="mouth_line" data-name="mouth line"><path id="_Path_" data-name="&lt;Path&gt;" class="cls-3" d="M106.83,208l1.67-.67.58-1.42c1.63-.87,1.75-1.75,1.75-1.75a4.3,4.3,0,0,0,2.25,0,4.31,4.31,0,0,0,1.38-1.62v1.63l-.87,1.1s-.5,2.06.13,2.73,1.69,1,2.25,1.67.5,2.75,1.25,3.25a9.86,9.86,0,0,1,1.59,1.22c.41.41,1.16,2.41,2.16,2.66l1,.25v1.25a9.12,9.12,0,0,0,3.88,3,19,19,0,0,0,5.62.71,17.19,17.19,0,0,0,4.63-1s4.83-1,6.17-.77a14.88,14.88,0,0,1,3.94,1.9l2.27,1.5,3.63,2.13h1.25l2.88,1h2.63s1-.37,1.58-.58a6,6,0,0,0,1.58-1.17s1.58,1.67,2.33,1.75a11,11,0,0,0,1.75,0l1.13-.87,1.5.13,2.38-1.25a7.48,7.48,0,0,0,2.75-1.37,9.12,9.12,0,0,1,2.94-1.72,9.33,9.33,0,0,1,4.31-.91c1.81.06,6.75,2.46,6.75,2.46a3.41,3.41,0,0,0,1.37.7,2.86,2.86,0,0,0,1.5-.41,18.59,18.59,0,0,1,3.28-1.37l2.47-.38,1.5-.62a3.67,3.67,0,0,0,2-.34c.72-.47.78-.78.78-.78v-1.37a6.49,6.49,0,0,0,3.25-1.87,5.21,5.21,0,0,0,1.63-3.37,7.41,7.41,0,0,0,1.88-1.25,4.08,4.08,0,0,0,.88-1.75l1.88-1.25.88-1.37-1-3.5,2.5,1.25,2.38,2,1,2-2.37-1.37-1.12-.75-.62,1.63a2.8,2.8,0,0,1-1.5,1.5c-1.16.5-1.25,1-1.25,1L208,213l-.83.83-1,.83a9.37,9.37,0,0,1-1.33,2.75,16,16,0,0,1-3.33,2.08,2.25,2.25,0,0,1-2,2.42c-1.52.21-2.37.43-3.56.69a25,25,0,0,0-3.44.88c-.72.31-1.37,1.08-2.12,1.22a8.32,8.32,0,0,1-1.5.22c-.44,0-1.75-1.25-2.87-1.31-.42,0-1.46-.35-1.65-.37a10.34,10.34,0,0,1-3.72,4.25c-.14,0,.39-4.32.38-5.24a5,5,0,0,0-5.89,2.51l-.94,5.68a69.21,69.21,0,0,1-12.28,1.12,105.35,105.35,0,0,1-11.6-.59s-.69-3.89-1.83-5.39a15.25,15.25,0,0,0-6.37-4c-.29-.07,2.05,7.2,1.85,7.22-.78.06-4.55-4-4.9-5.67a35.06,35.06,0,0,1-4.17,0v2.27a6.38,6.38,0,0,0-1.49-1.9c-1.34-.94-6-1.09-6-1.09a12,12,0,0,1-3.56-1.16,20.22,20.22,0,0,1-2.53-2.19l-.25-1.44-1.25-1-1.19-1.56h-.94l-.19-1.25s-1.44-.87-1.62-1.5,0-2.46-1.22-3-1.72-.67-1.85-1.86a5.42,5.42,0,0,0-.5-1.87l-.84-.09a5.1,5.1,0,0,0-1.84,1.59c-.37.81-1,.75-1.56.88A2.89,2.89,0,0,1,106.83,208Z"/></g><g id="nostrils_etc" data-name="nostrils etc"><path d="M170.92,198.77h4.5s3.58-.42,4.25,0,1.08,1.42.75,1.83,1.25,0,1.25,0,2.92-2.92,2.58-5.25a5.77,5.77,0,0,0-4.5-5.17c-3-.83-6.42-3.25-8.83-2.5s-6,3.67-5.67,5.67a8.13,8.13,0,0,0,2.33,4.58A10.43,10.43,0,0,0,170.92,198.77Z"/><path d="M142.5,200.79s-2.33-3.44-2.25-5.52a7.06,7.06,0,0,1,3.42-5.08c1.25-.5,5.5-2,7.75-2.08s7.08,3.35,7,6.34-1.58,4.66-2.75,4.66-11-1.33-11.83-.67A5.77,5.77,0,0,0,142.5,200.79Z"/></g></svg>