<?xml version="1.0" encoding="utf-8"?>
<!-- Generator: Adobe Illustrator 21.1.0, SVG Export Plug-In . SVG Version: 6.00 Build 0)  -->
<svg version="1.1" xmlns="http://www.w3.org/2000/svg" xmlns:xlink="http://www.w3.org/1999/xlink" x="0px" y="0px"
	 viewBox="0 0 318 353.5" style="enable-background:new 0 0 318 353.5;" xml:space="preserve">
<style type="text/css">
	.st0{fill:url(#SVGID_1_);}
	.st1{fill:none;}
	.st2{fill:#194C48;}
	.st3{fill:#2B6B64;}
	.st4{display:none;}
	.st5{display:inline;fill:#18D1CC;}
	.st6{fill:#161414;}
	.st7{fill:#262323;}
	.st8{fill:#3D3739;}
	.st9{fill:#BB9979;}
	.st10{fill:#CCB5A2;}
	.st11{fill:#725744;}
	.st12{fill:#967257;}
	.st13{fill:#9E806C;}
	.st14{opacity:0.69;fill:#CCB5A2;enable-background:new    ;}
	.st15{fill:#070808;}
	.st16{opacity:0.5;}
	.st17{fill:#CCCCCB;}
	.st18{fill:#CCCCCC;}
	.st19{fill:#6F6261;}
	.st20{fill:url(#SVGID_2_);}
	.st21{fill:url(#SVGID_3_);}
	.st22{fill:#7F7777;}
</style>
<g id="Layer_5">
	<g id="Layer_30_2_">
		<linearGradient id="SVGID_1_" gradientUnits="userSpaceOnUse" x1="159" y1="353.52" x2="159" y2="35.52">
			<stop  offset="0.4759" style="stop-color:#CCB5A2"/>
			<stop  offset="0.4891" style="stop-color:#CCB49F"/>
			<stop  offset="0.6338" style="stop-color:#CCA77E"/>
			<stop  offset="0.7548" style="stop-color:#CC9F6A"/>
			<stop  offset="0.8367" style="stop-color:#CC9C63"/>
		</linearGradient>
		<circle class="st0" cx="159" cy="194.5" r="159"/>
	</g>
</g>
<g id="trees">
	<g>
		<path class="st1" d="M27.4,203.1c0.8-1.9,2.1-1.8,4.2-1.5C29.6,201.2,28.2,201.3,27.4,203.1z"/>
		<path class="st1" d="M18,186.7c-0.3-0.6-0.5-1.3,0-1.9c0.4-0.6,1-0.6,1.6-0.4c-0.6-0.2-1.2-0.2-1.6,0.4
			C17.4,185.4,17.6,186.1,18,186.7c0.3,0.6,0.9,1.3,1.4,1.2C18.9,187.9,18.3,187.3,18,186.7z"/>
		<path class="st1" d="M23.4,193.4c-2.7,0-5.3-0.5-8.3-0.1C18.1,192.9,20.7,193.5,23.4,193.4z"/>
		<path class="st1" d="M27.7,220.4c1.8,1.4,2.5,4,4.4,5.2C30.2,224.4,29.7,221.5,27.7,220.4z"/>
		<path class="st1" d="M16.8,181.8c-0.3-1.7,0.6-2.9,1.5-2.9c0,0,0,0,0,0C17.3,178.8,16.5,180,16.8,181.8c1.3,0.1,2.6,0.5,4.1,0.5
			C19.3,182.3,18.1,181.8,16.8,181.8z"/>
		<path class="st1" d="M29.2,191.9c-0.8,0-1.7,0.5-2.5,1.6C27.5,192.4,28.4,192,29.2,191.9z"/>
		<path class="st1" d="M32.4,186.2c-1.1-1.7-2.2-3.5-3.7-3.3c0,0,0,0,0,0C30.2,182.8,31.3,184.5,32.4,186.2z"/>
		<path class="st1" d="M32.4,186.2c-2.4-0.1-4.5-0.2-6.8-0.3C27.8,186,30,186.1,32.4,186.2z"/>
		<path class="st1" d="M23.4,193.4c-3.2-4.8-4.9-4.8-8.3-0.1C18.5,188.6,20.3,188.7,23.4,193.4z"/>
		<path class="st1" d="M33,196.7c0.3,0.2,0.5,0.3,0.8,0.4C33.6,197.1,33.3,196.9,33,196.7c-1.7-1.3-2.9-2-4-1.9
			C30.1,194.7,31.3,195.4,33,196.7z"/>
		<path class="st1" d="M24.4,198.8c1,1.2,1.8,0.6,2.6,0.3c0.1,0,0.1,0,0.2-0.1c-0.1,0-0.2,0-0.3,0.1
			C26.2,199.3,25.4,199.9,24.4,198.8z"/>
		<path class="st1" d="M-1.1,179.2c-0.4-0.1-0.8-0.2-1.2-0.4C-1.9,179-1.5,179.1-1.1,179.2c0.5,0.2,1.1-0.4,1-0.9c0,0,0,0,0,0
			C0,178.7-0.6,179.2-1.1,179.2z"/>
		<path class="st1" d="M14,177.8c-2.5-1.4-4-3.7-6.6-2.1C10,174,11.5,176.4,14,177.8z"/>
		<path class="st1" d="M14,177.8c-2.9,0.4-5,1.2-6.6-2.1C9,179,11.2,178.1,14,177.8z"/>
		<path class="st1" d="M14.1,183.9c-4.6-4.5-5-4.6-6.8-1.3C9.1,179.4,9.5,179.5,14.1,183.9z"/>
	</g>
	<g>
		<path class="st2" d="M0.3,203.7C0.3,203.7,0.3,203.7,0.3,203.7c0,0.1,0,0.1,0,0.2c0,0,0,0,0,0c0,0,0,0,0,0c0,0.2,0,0.4,0,0.6
			c0.2,3.6,0.6,7.4,1,11c0,0,0,0,0,0c0,0.1,0,0.1,0,0.2c0,0,0,0,0,0c0.6,4.5,1.4,8.9,2.4,13.3c0,0,0,0,0.1,0.1c0,0,0,0-0.1,0
			c0.2,1,0.5,2,0.7,3.1c0,0.1,0,0.2,0.1,0.2c1.3,5.1,2.8,10.2,4.5,15.1c0,0.1,0.1,0.2,0.1,0.4c0.3,0.9,0.6,1.8,1,2.7
			c0.1,0.2,0.1,0.3,0.2,0.5c0.3,0.9,0.7,1.8,1.1,2.7c0,0,0,0,0,0c1.9,4.7,4.1,9.4,6.4,13.9c0.5,1,1,2,1.6,2.9c1.1,2,2.2,3.9,3.4,5.9
			c0,0,0,0,0,0c1.6,1.1,3.4,2,5.3,2.9c-1.3-2.9-2.2-6.1-2.7-9.4c-1.2-8-3.3-17-2.3-25.2c-0.9-2.1-0.9-4.8,0.2-7.2
			c0.6-1.2,0.9-2.6,1.4-3.9c0,0,0.1,0,0.1,0c1.2,0,7.5-19.7,8.5-18.3c0.1-2.5,0.2-5,0.3-7.6c-0.1-0.1-0.3-0.3-0.4-0.4
			c-0.7-0.9-0.8-2.1-0.6-3.4c0.1-0.9,0.6-1.6,1.2-1.5c0-0.7,0.1-1.5,0.1-2.2c-0.2,0-0.5,0.1-0.7,0.1c-1,0-2-0.3-3.1-1.3
			c-0.8-0.8-1.9-0.5-2.9-0.2c-0.1,0-0.1,0-0.2,0.1c-0.8,0.3-1.6,0.9-2.6-0.3c1.9-2.6,3.1-3.9,4.6-4c1.1-0.1,2.4,0.6,4.1,1.9
			c0.2,0.2,0.5,0.3,0.7,0.4c0,0,0.1,0,0.1,0c0-1.4,0.1-2.8,0.1-4.2c-1.8,0-3.3-1.1-4.8-1.1c-0.8,0-1.7,0.5-2.5,1.6
			c0.8-5.5,2-5.6,7.4-1.5c0-0.6,0-1.1,0-1.7c0-3.6,2-5.8,4.6-6.8c-1.6-4.4-3-8.4-3.3-7.8c-0.3,1.8-2.2-4-3.2-6.1
			c-2.1-1.4-1.7-5.1-4-6.4c-1.2,0.6-0.7,2.5-1.8,3v0c0,0.1,0,0.2-0.1,0.3c-0.2,0.9-0.2,1.8-0.4,2.7c-0.1,0.3-0.2,0.6-0.3,0.9
			c-0.2,0.4-1.4,5.5-1.8,5.8c-0.2-0.2-0.4-0.4-0.5-0.6c0-0.1-0.1-0.1-0.1-0.2c-0.1-0.2-0.2-0.3-0.3-0.5c0-0.1-0.1-0.1-0.1-0.2
			c-0.3-0.6-0.5-1.2-0.7-1.9c-0.1-0.2-0.1-0.4-0.2-0.7c0-0.1,0-0.1,0-0.2c-0.1-0.2-0.1-0.4-0.2-0.5c-0.2-0.5-0.4-1-0.7-1.5v0
			c-0.3-0.9-0.4-2.2-0.7-3c-0.1-0.2-0.2-0.3-0.2-0.5c-0.2-0.3-0.4-0.6-0.5-1.1c-0.1-0.4-0.1-1.1-0.2-1.5c-0.1-0.3-0.1-0.5-0.2-0.8
			c-0.1-0.2-0.1-0.4-0.2-0.6c-0.1,0-0.3,0-0.4,0c-0.4,0.1-0.6,0.7-0.9,1c-0.8,1-1.1,2.4-2.4,3.1c0,0,0.1,0,0.1,0
			c0.1,0.6-0.3,1.8-0.7,3c-0.5,1.4-1.1,2.7-1.1,2.7c0,0,0,0.1-0.1,0.1c-0.5-0.6-0.8-1.3-1.1-2c-0.2-0.4-0.3-0.8-0.4-1.2
			c-0.1-0.3-0.2-0.6-0.2-0.8c-0.1-0.2-0.1-0.4-0.2-0.6c-0.1-0.2-0.2-0.4-0.2-0.7c0,0,0-0.1,0-0.1c0-0.1,0-0.2,0-0.4
			c0-0.1,0-0.2,0-0.3c0-0.3,0.1-0.6,0.1-0.9c-0.3-0.9-0.8-2.3-1.1-3c-0.2-0.4-0.3-0.3-0.4-0.5c0,0-0.1-0.1-0.1-0.3c0,0,0-0.1,0-0.2
			c0-0.2,0-0.5-0.1-0.7c-0.5-1.1-0.9-1.9-1.1-2c-0.3,0.2-0.5,0.6-0.7,1.1c-0.2,0.3-0.5,0.6-0.7,1c-0.2,0.3-0.3,0.8-0.5,1.1
			c0,0.1-0.1,0.2-0.1,0.2c0,0,0,0,0,0c-0.1,0.1-0.2,0.2-0.3,0.3c0,0,0,0,0,0c0,0.5-0.4,0.7-0.7,1c-0.2,0.2,0.1,1,0,1.3
			c-0.2,0.4-0.7,0.6-0.9,0.9c-0.2,0.3-0.2,0.7-0.4,1c-0.2,0.3-0.4,0.5-0.5,0.8c-0.6,0.9-1.2,1.9-1.7,3.3c-1.2,7.8-1.8,15.9-1.8,24
			C0,197.6,0.1,200.7,0.3,203.7z"/>
		<g>
			<polygon class="st3" points="1.5,202 1.5,202 1.5,202 			"/>
			<path class="st3" d="M33.9,200.3c0-1,0.1-2.1,0.1-3.1c0,0-0.1,0-0.1,0c-0.3-0.1-0.5-0.2-0.8-0.4c-1.7-1.3-2.9-2-4-1.9
				c-1.4,0.1-2.7,1.3-4.6,4c1,1.2,1.8,0.5,2.6,0.3c0.1,0,0.2,0,0.3-0.1c1-0.3,2.1-0.6,2.9,0.2c1.1,1,2.1,1.3,3.1,1.3
				C33.4,200.4,33.6,200.4,33.9,200.3z"/>
			<path class="st3" d="M33.6,207.9c0.1-1.8,0.2-3.5,0.2-5.3c-0.6-0.1-1.1,0.6-1.2,1.5c-0.2,1.3-0.1,2.5,0.6,3.4
				C33.3,207.6,33.4,207.7,33.6,207.9z"/>
			<path class="st3" d="M17.8,193.9c0.7,1.4,2.9-0.7,3.9-0.7c1.8,0,2.7,0.8,4.4,0.8C23,189.3,21.2,189.2,17.8,193.9z"/>
			<path class="st3" d="M7.6,191.8c0.7,1.4,2.9-0.7,3.9-0.7c1.8,0,2.7,0.8,4.4,0.8C12.7,187.2,11,187.1,7.6,191.8z"/>
			<path class="st3" d="M14.1,197.1c0.7,1.4,2.9-0.7,3.9-0.7c1.8,0,2.7,0.8,4.4,0.8C19.2,192.4,17.5,192.4,14.1,197.1z"/>
			<path class="st3" d="M34.1,193c0-0.3,0-0.6,0-1c-5.3-4.1-6.6-4-7.4,1.5c0.9-1.2,1.7-1.6,2.5-1.6C30.8,191.8,32.3,193,34.1,193z"
				/>
			<path class="st3" d="M25.3,184.2c0.1,0,0.2,0,0.3,0c2.3,0.1,4.4,0.2,6.8,0.3c-1.1-1.7-2.2-3.4-3.7-3.3c0,0,0,0,0,0
				C27.4,181.3,26,182.2,25.3,184.2z"/>
			<path class="st3" d="M14.2,183.4c-4.6-4.5-5-4.6-6.8-1.3C9.8,181.4,11.6,184.2,14.2,183.4z"/>
			<path class="st3" d="M19.9,183.9c-0.5-0.2-1.1-0.1-1.6,0.4c-0.5,0.6-0.3,1.3,0,1.9c0.4,0.6,0.9,1.2,1.4,1.2c0.2,0,0.3,0,0.5-0.2
				c0.9-0.8,2-0.3,3.2-1c-1-1.5-2.3-1.6-3.2-2.2C20.1,184,20,184,19.9,183.9z"/>
			<path class="st3" d="M12.2,195.7c-0.9-0.4-0.7-0.3-1.8,0.6c-1.2,0.9-1.5,1.8-1.4,2.5c0.1,1.1-2.1,2.8-1.2,3
				c0.3,0,2.1-1.2,2.5-1.4c2-3.4,4.5,0.7,7-0.3c-1-2.6-3-2.3-4.4-3.3C12.6,196.6,12.3,195.7,12.2,195.7z"/>
			<path class="st3" d="M15,201.7c-0.8-0.5-1.2,0.6-2.1,1.3c-1,0.8-2.9,1.2-2.6,2.3c0.3,1.2-1.6,1.5-1.3,2.3
				c0.3,0.8,5.8-1.2,6.1-1.4c1.8-1.1,4.9,0.9,6.9,0.1c-0.8-1.5-2.1-1.3-3.5-2.6C18.4,203.6,15.1,201.8,15,201.7z"/>
			<path class="st3" d="M23.6,198.3c-0.5-0.4-0.8,0.4-1.5,0.9c-0.7,0.6-2.1,0.7-1.9,1.6c0.2,0.8-1.1,1-1,1.5
				c0.2,0.6,3.9-1.4,4.1-1.5c1.3-0.7,3.3,0.8,4.8,0.3c-0.5-1-1.2-0.4-2.1-1.3C25.9,199.7,23.7,198.4,23.6,198.3z"/>
			<path class="st3" d="M30.7,171.5c-0.4-0.5-0.9,0.1-1.7,0.3c-0.8,0.3-1.2,0.6-1.3,0.7c-0.6,0.6-0.1,0.7,0.4,0.6
				c0.8-0.1,1.6,0.2,1.8,0.1c0.9,0.2,1,0.6,2.1,1.5c0.3-0.4,0.1-1.1-0.2-1.5C31.9,173.2,30.8,171.6,30.7,171.5z"/>
			<path class="st3" d="M16.2,217.2c-0.8-0.5-1.7,0.8-2.6,1.5c-1,0.8-2.6,0.4-2.3,1.6c0.3,1.2-1.6,1.5-1.3,2.2
				c0.3,0.8,5.7-1.6,6-1.8c1.8-1.1,5.3,1.8,7.3,1.1c-0.8-1.5-2.4-1.7-3.8-3C19.4,218.7,16.3,217.3,16.2,217.2z"/>
			<path class="st3" d="M17,209.1c-0.7-0.7-1.8,0.5-2.8,1.1c-1.1,0.6-2.7,0-2.6,1.2c0.1,1.2-3.5,1.5-3.4,2.4c0.2,0.9,9-1.7,9.2-1.4
				c1.2,1.7,4.9,1.1,7,0.7c-0.5-1.6-3.4-0.3-4.5-1.8C19.9,211.1,17.2,209.2,17,209.1z"/>
			<path class="st3" d="M21.7,177.2c0.4,0,0.9-0.1,1.3-0.2c-1.5-1.4-2.3-3.2-3.9-3.3c0,0,0,0,0,0c-0.3,0-0.5,0.1-0.8,0.3
				c-1,0.9-0.4,2.6,0.9,2.8C20,177.1,20.8,177.2,21.7,177.2z"/>
			<path class="st3" d="M13.3,177.9c-1.4-1.5-3.3-3.9-5.9-2.2c-1.8,1.9,2.3,1.2,2.9,1.5C11.4,177.8,13.2,178.8,13.3,177.9z"/>
			<path class="st3" d="M9.8,171.9c0.4,0.2,1.1,1.2,1.5,1.2c0.5,0.1,0.5-0.4,0.5-0.9c0,0,0,0,0-0.1c-0.5-2-2-2.9-3-2.4
				c-1,0.4-2.2,1.4-1.9,1.9C7.2,172.3,9.4,171.7,9.8,171.9z"/>
			<path class="st3" d="M27.4,203.1C27.4,203.1,27.4,203.1,27.4,203.1c-0.3,0.6,0,1.4,0.5,1.4c0.4,0,0.8,0,1.1-0.1
				c0.3-0.1,0.5-0.2,0.7-0.3c0.2-0.2,0.4-0.3,0.7-0.6c0.3-0.3,0.6-0.7,0.8-1.1c0.1-0.2,0.3-0.5,0.4-0.7
				C29.6,201.3,28.2,201.3,27.4,203.1z"/>
			<path class="st3" d="M28.5,168.8c0.4-0.2,1.6,0.5,1.4-0.2c-0.1-0.3-0.4-0.8-0.3-1.1c0.1-0.6,0.1-0.9-0.6-1.3
				C28.7,167.2,28.5,167.7,28.5,168.8z"/>
			<path class="st3" d="M18.1,170.8c0.4-0.2,2,0.7,1.9,0.1c-0.1-0.3-0.6-2-0.6-2.3c0.1-0.6,0.1-0.9-0.6-1.3
				C18.5,168.2,18.1,169.7,18.1,170.8z"/>
			<path class="st3" d="M10,165.5c-0.2-0.4,0-1.2-0.2-1.4c-0.2-0.2-0.2-1.1-0.5-1.1c-0.6,0-0.6,1.9-1,2.7
				C9.5,166.3,9.9,167.1,10,165.5z"/>
		</g>
	</g>
	<path class="st3" d="M29.1,177.9c0.4,0.1,1.2,1,1.7,1c0.5,0,0.5-0.5,0.4-0.9c0,0,0,0,0-0.1c-0.7-1.9-2.4-2.5-3.3-1.9
		c-1,0.6-1.9,1.7-1.6,2.2C26.5,178.7,28.6,177.7,29.1,177.9z"/>
	<path class="st3" d="M21.4,181.1c0.4,0.1,1.2,1,1.7,1c0.5,0,0.5-0.5,0.4-0.9c0,0,0,0,0-0.1c-0.7-1.9-2.4-2.5-3.3-1.9
		c-1,0.6-1.9,1.7-1.6,2.2C18.9,181.9,20.9,180.9,21.4,181.1z"/>
	<g>
		<path class="st1" d="M290.8,203.5c-0.8-1.9-2.1-1.8-4.2-1.5C288.7,201.6,290,201.6,290.8,203.5z"/>
		<path class="st1" d="M300.2,187c0.3-0.6,0.5-1.3,0-1.9c-0.4-0.6-1-0.6-1.6-0.4c0.6-0.2,1.2-0.2,1.6,0.4
			C300.8,185.7,300.6,186.4,300.2,187c-0.3,0.6-0.9,1.3-1.4,1.2C299.3,188.2,299.9,187.6,300.2,187z"/>
		<path class="st1" d="M294.8,193.7c2.7,0,5.3-0.5,8.3-0.1C300.1,193.3,297.5,193.8,294.8,193.7z"/>
		<path class="st1" d="M290.5,220.8c-1.8,1.4-2.5,4-4.4,5.2C288,224.8,288.5,221.8,290.5,220.8z"/>
		<path class="st1" d="M301.5,182.1c0.3-1.7-0.6-2.9-1.5-2.9c0,0,0,0,0,0C300.9,179.2,301.7,180.4,301.5,182.1
			c-1.3,0.1-2.6,0.5-4.1,0.5C298.9,182.6,300.2,182.1,301.5,182.1z"/>
		<path class="st1" d="M289,192.3c0.8,0,1.7,0.5,2.5,1.6C290.7,192.7,289.9,192.3,289,192.3z"/>
		<path class="st1" d="M285.8,186.5c1.1-1.7,2.2-3.5,3.7-3.3c0,0,0,0,0,0C288,183.2,286.9,184.8,285.8,186.5z"/>
		<path class="st1" d="M285.8,186.5c2.4-0.1,4.5-0.2,6.8-0.3C290.4,186.4,288.3,186.5,285.8,186.5z"/>
		<path class="st1" d="M294.8,193.7c3.2-4.8,4.9-4.8,8.3-0.1C299.7,188.9,298,189,294.8,193.7z"/>
		<path class="st1" d="M285.2,197.1c-0.3,0.2-0.5,0.3-0.8,0.4C284.7,197.4,284.9,197.3,285.2,197.1c1.7-1.3,2.9-2,4-1.9
			C288.1,195.1,286.9,195.7,285.2,197.1z"/>
		<path class="st1" d="M293.8,199.1c-1,1.2-1.8,0.6-2.6,0.3c-0.1,0-0.1,0-0.2-0.1c0.1,0,0.2,0,0.3,0.1
			C292,199.6,292.8,200.3,293.8,199.1z"/>
		<path class="st1" d="M319.3,179.5c0.4-0.1,0.8-0.2,1.2-0.4C320.2,179.3,319.8,179.5,319.3,179.5c-0.5,0.2-1.1-0.4-1-0.9
			c0,0,0,0,0,0C318.3,179,318.8,179.6,319.3,179.5z"/>
		<path class="st1" d="M304.2,178.1c2.5-1.4,4-3.7,6.6-2.1C308.2,174.4,306.7,176.8,304.2,178.1z"/>
		<path class="st1" d="M304.2,178.1c2.9,0.4,5,1.2,6.6-2.1C309.2,179.4,307.1,178.5,304.2,178.1z"/>
		<path class="st1" d="M304.2,184.3c4.6-4.5,5-4.6,6.8-1.3C309.2,179.7,308.7,179.8,304.2,184.3z"/>
	</g>
	<g>
		<path class="st2" d="M316.1,170c-0.4-1-0.9-1.7-1.4-2.5c-0.2-0.3-0.4-0.5-0.5-0.8c-0.2-0.3-0.2-0.7-0.4-1
			c-0.2-0.3-0.7-0.6-0.9-0.9c-0.1-0.3,0.2-1,0-1.3c-0.3-0.3-0.7-0.5-0.7-1c0,0,0,0,0,0c-0.1-0.1-0.2-0.2-0.3-0.3c0,0,0,0,0,0
			c0-0.1-0.1-0.1-0.1-0.2c-0.2-0.4-0.4-0.8-0.5-1.1c-0.2-0.4-0.5-0.6-0.7-1c-0.3-0.4-0.5-0.9-0.7-1.1c-0.2,0.1-0.6,0.9-1.1,2
			c-0.1,0.1,0,0.4-0.1,0.7c0,0.1,0,0.1,0,0.2c-0.1,0.1-0.1,0.2-0.1,0.3c-0.1,0.1-0.2,0.1-0.4,0.5c-0.3,0.7-0.8,2.2-1.1,3
			c0.1,0.3,0.1,0.6,0.1,0.9c0,0.1,0,0.2,0,0.3c0,0.1,0,0.2,0,0.4c0,0,0,0.1,0,0.1c0,0.3-0.1,0.5-0.2,0.7c-0.1,0.2-0.2,0.4-0.2,0.6
			c-0.1,0.3-0.1,0.6-0.2,0.8c-0.1,0.4-0.2,0.8-0.4,1.2c-0.3,0.7-0.6,1.4-1.1,2c0,0,0-0.1-0.1-0.1c0,0-0.6-1.3-1.1-2.7
			c-0.4-1.1-0.8-2.3-0.7-3c0,0,0.1,0,0.1,0c-1.2-0.7-1.5-2-2.4-3.1c-0.2-0.3-0.5-0.8-0.9-1c-0.1,0.1-0.3,0-0.4,0
			c-0.1,0.2-0.1,0.4-0.2,0.6c-0.1,0.3-0.1,0.5-0.2,0.8c-0.1,0.4-0.1,1.1-0.2,1.5c-0.1,0.5-0.3,0.7-0.5,1.1c-0.1,0.1-0.2,0.3-0.2,0.5
			c-0.3,0.8-0.5,2.1-0.7,3v0c-0.3,0.4-0.5,0.9-0.7,1.5c-0.1,0.2-0.1,0.3-0.2,0.5c0,0.1,0,0.1,0,0.2c-0.1,0.2-0.1,0.4-0.2,0.7
			c-0.2,0.7-0.4,1.3-0.7,1.9c0,0.1-0.1,0.1-0.1,0.2c-0.1,0.2-0.2,0.3-0.3,0.5c0,0.1-0.1,0.1-0.1,0.2c-0.2,0.2-0.3,0.4-0.5,0.6
			c-0.4-0.3-1.6-5.4-1.8-5.8c-0.2-0.3-0.3-0.6-0.3-0.9c-0.2-0.9-0.2-1.8-0.4-2.7c0-0.1,0-0.2-0.1-0.3v0c-1.1-0.4-0.6-2.4-1.8-3
			c-2.2,1.3-1.8,5-4,6.4c-1,2-2.9,7.9-3.2,6.1c-0.3-0.6-1.7,3.3-3.3,7.8c2.6,1,4.6,3.3,4.6,6.8c0,0.6,0,1.1,0,1.7
			c5.3-4.1,6.6-4,7.4,1.5c-0.9-1.2-1.7-1.6-2.5-1.6c-1.5-0.1-3.1,1.1-4.8,1.1c0,1.4,0,2.8,0.1,4.2c0,0,0.1,0,0.1,0
			c0.3-0.1,0.5-0.2,0.7-0.4c1.7-1.3,3-2,4.1-1.9c1.4,0.1,2.7,1.3,4.6,4c-1,1.2-1.8,0.6-2.6,0.3c-0.1,0-0.1,0-0.2-0.1
			c-1-0.3-2.1-0.6-2.9,0.2c-1.1,1-2.1,1.3-3.1,1.3c-0.2,0-0.5,0-0.7-0.1c0,0.7,0.1,1.5,0.1,2.2c0.6-0.1,1.1,0.6,1.2,1.5
			c0.2,1.3,0.1,2.5-0.6,3.4c-0.1,0.1-0.2,0.3-0.4,0.4c0.1,2.5,0.2,5,0.3,7.6c1-1.4,7.3,18.3,8.5,18.3c0,0,0.1,0,0.1,0
			c0.5,1.3,0.8,2.7,1.4,3.9c1.1,2.4,1.1,5,0.2,7.2c1,8.2-1,17.2-2.3,25.2c-0.5,3.3-1.4,6.5-2.7,9.4c1.6-0.7,3.2-1.6,4.6-2.5
			c14.7-24.1,23.2-52.4,23.2-82.7C318,186.2,317.4,178,316.1,170z"/>
		<g>
			<polygon class="st3" points="316.7,202.4 316.7,202.4 316.7,202.4 			"/>
			<path class="st3" d="M284.4,200.7c0-1-0.1-2.1-0.1-3.1c0,0,0.1,0,0.1,0c0.3-0.1,0.5-0.2,0.8-0.4c1.7-1.3,2.9-2,4-1.9
				c1.4,0.1,2.7,1.3,4.6,4c-1,1.2-1.8,0.5-2.6,0.3c-0.1,0-0.2,0-0.3-0.1c-1-0.3-2.1-0.6-2.9,0.2c-1.1,1-2.1,1.3-3.1,1.3
				C284.8,200.7,284.6,200.7,284.4,200.7z"/>
			<path class="st3" d="M284.7,208.2c-0.1-1.8-0.2-3.5-0.2-5.3c0.6-0.1,1.1,0.6,1.2,1.5c0.2,1.3,0.1,2.5-0.6,3.4
				C284.9,207.9,284.8,208.1,284.7,208.2z"/>
			<path class="st3" d="M300.4,194.3c-0.7,1.4-2.9-0.7-3.9-0.7c-1.8,0-2.7,0.8-4.4,0.8C295.2,189.6,297,189.6,300.4,194.3z"/>
			<path class="st3" d="M310.7,192.1c-0.7,1.4-2.9-0.7-3.9-0.7c-1.8,0-2.7,0.8-4.4,0.8C305.5,187.5,307.3,187.5,310.7,192.1z"/>
			<path class="st3" d="M304.2,197.4c-0.7,1.4-2.9-0.7-3.9-0.7c-1.8,0-2.7,0.8-4.4,0.8C299,192.8,300.8,192.7,304.2,197.4z"/>
			<path class="st3" d="M284.2,193.3c0-0.3,0-0.6,0-1c5.3-4.1,6.6-4,7.4,1.5c-0.9-1.2-1.7-1.6-2.5-1.6
				C287.5,192.2,285.9,193.3,284.2,193.3z"/>
			<path class="st3" d="M292.9,184.6c-0.1,0-0.2,0-0.3,0c-2.3,0.1-4.4,0.2-6.8,0.3c1.1-1.7,2.2-3.4,3.7-3.3c0,0,0,0,0,0
				C290.8,181.6,292.3,182.5,292.9,184.6z"/>
			<path class="st3" d="M304,183.8c4.6-4.5,5-4.6,6.8-1.3C308.4,181.7,306.7,184.5,304,183.8z"/>
			<path class="st3" d="M298.3,184.3c0.5-0.2,1.1-0.1,1.6,0.4c0.5,0.6,0.3,1.3,0,1.9c-0.4,0.6-0.9,1.2-1.4,1.2c-0.2,0-0.3,0-0.5-0.2
				c-0.9-0.8-2-0.3-3.2-1c1-1.5,2.3-1.6,3.2-2.2C298.1,184.3,298.2,184.3,298.3,184.3z"/>
			<path class="st3" d="M306.1,196c0.9-0.4,0.7-0.3,1.8,0.6c1.2,0.9,1.5,1.8,1.4,2.5c-0.1,1.1,2.1,2.8,1.2,3c-0.3,0-2.1-1.2-2.5-1.4
				c-2-3.4-4.5,0.7-7-0.3c1-2.6,3-2.3,4.4-3.3C305.6,196.9,305.9,196.1,306.1,196z"/>
			<path class="st3" d="M303.3,202c0.8-0.5,1.2,0.6,2.1,1.3c1,0.8,2.9,1.2,2.6,2.3c-0.3,1.2,1.6,1.5,1.3,2.3
				c-0.3,0.8-5.8-1.2-6.1-1.4c-1.8-1.1-4.9,0.9-6.9,0.1c0.8-1.5,2.1-1.3,3.5-2.6C299.9,204,303.1,202.1,303.3,202z"/>
			<path class="st3" d="M294.7,198.6c0.5-0.4,0.8,0.4,1.5,0.9c0.7,0.6,2.1,0.7,1.9,1.6c-0.2,0.8,1.1,1,1,1.5
				c-0.2,0.6-3.9-1.4-4.1-1.5c-1.3-0.7-3.3,0.8-4.8,0.3c0.5-1,1.2-0.4,2.1-1.3C292.3,200,294.6,198.7,294.7,198.6z"/>
			<path class="st3" d="M287.5,171.8c0.4-0.5,0.9,0.1,1.7,0.3c0.8,0.3,1.2,0.6,1.3,0.7c0.6,0.6,0.1,0.7-0.4,0.6
				c-0.8-0.1-1.6,0.2-1.8,0.1c-0.9,0.2-1,0.6-2.1,1.5c-0.3-0.4-0.1-1.1,0.2-1.5C286.4,173.5,287.4,171.9,287.5,171.8z"/>
			<path class="st3" d="M302.1,217.5c0.8-0.5,1.7,0.8,2.6,1.5c1,0.8,2.6,0.4,2.3,1.6c-0.3,1.2,1.6,1.5,1.3,2.2
				c-0.3,0.8-5.7-1.6-6-1.8c-1.8-1.1-5.3,1.8-7.3,1.1c0.8-1.5,2.4-1.7,3.8-3C298.9,219,301.9,217.6,302.1,217.5z"/>
			<path class="st3" d="M301.2,209.4c0.7-0.7,1.8,0.5,2.8,1.1c1.1,0.6,2.7,0,2.6,1.2c-0.1,1.2,3.5,1.5,3.4,2.4
				c-0.2,0.9-9-1.7-9.2-1.4c-1.2,1.7-4.9,1.1-7,0.7c0.5-1.6,3.4-0.3,4.5-1.8C298.3,211.4,301.1,209.6,301.2,209.4z"/>
			<path class="st3" d="M296.5,177.6c-0.4,0-0.9-0.1-1.3-0.2c1.5-1.4,2.3-3.2,3.9-3.3c0,0,0,0,0,0c0.3,0,0.5,0.1,0.8,0.3
				c1,0.9,0.4,2.6-0.9,2.8C298.2,177.4,297.4,177.6,296.5,177.6z"/>
			<path class="st3" d="M304.9,178.2c1.4-1.5,3.3-3.9,5.9-2.2c1.8,1.9-2.3,1.2-2.9,1.5C306.8,178.1,305.1,179.1,304.9,178.2z"/>
			<path class="st3" d="M308.4,172.2c-0.4,0.2-1.1,1.2-1.5,1.2c-0.5,0.1-0.5-0.4-0.5-0.9c0,0,0,0,0-0.1c0.5-2,2-2.9,3-2.4
				c1,0.4,2.2,1.4,1.9,1.9C311.1,172.6,308.9,172,308.4,172.2z"/>
			<path class="st3" d="M290.8,203.5C290.8,203.5,290.8,203.5,290.8,203.5c0.3,0.6,0,1.4-0.5,1.4c-0.4,0-0.8,0-1.1-0.1
				c-0.3-0.1-0.5-0.2-0.7-0.3c-0.2-0.2-0.4-0.3-0.7-0.6c-0.3-0.3-0.6-0.7-0.8-1.1c-0.1-0.2-0.3-0.5-0.4-0.7
				C288.7,201.6,290,201.6,290.8,203.5z"/>
			<path class="st3" d="M289.8,169.1c-0.4-0.2-1.6,0.5-1.4-0.2c0.1-0.3,0.4-0.8,0.3-1.1c-0.1-0.6-0.1-0.9,0.6-1.3
				C289.6,167.5,289.8,168,289.8,169.1z"/>
			<path class="st3" d="M300.1,171.1c-0.4-0.2-2,0.7-1.9,0.1c0.1-0.3,0.6-2,0.6-2.3c-0.1-0.6-0.1-0.9,0.6-1.3
				C299.7,168.5,300.1,170.1,300.1,171.1z"/>
			<path class="st3" d="M308.2,165.8c0.2-0.4,0-1.2,0.2-1.4c0.2-0.2,0.2-1.1,0.5-1.1c0.6,0,0.6,1.9,1,2.7
				C308.7,166.6,308.3,167.4,308.2,165.8z"/>
		</g>
	</g>
	<path class="st3" d="M289.1,178.3c-0.4,0.1-1.2,1-1.7,1c-0.5,0-0.5-0.5-0.4-0.9c0,0,0,0,0-0.1c0.7-1.9,2.4-2.5,3.3-1.9
		s1.9,1.7,1.6,2.2C291.7,179,289.6,178.1,289.1,178.3z"/>
	<path class="st3" d="M296.8,181.4c-0.4,0.1-1.2,1-1.7,1c-0.5,0-0.5-0.5-0.4-0.9c0,0,0,0,0-0.1c0.7-1.9,2.4-2.5,3.3-1.9
		c1,0.6,1.9,1.7,1.6,2.2C299.4,182.2,297.3,181.2,296.8,181.4z"/>
</g>
<g id="Layer_1">
	<title>blackbear-logo</title>
	<g id="Layer_30" class="st4">
		<circle class="st5" cx="159" cy="194.5" r="159"/>
	</g>
	<g id="head_shape">
		<path class="st6" d="M299.3,241.9l-1.1-5.9c0,0-1.9-4.5-1.2-4.5s4.3,2.8,4.7,2.2s-3.2-3.8-3.2-3.8c0.4-0.5,0.9-0.8,1.5-0.8h0.8
			c0.1-0.7-0.1-1.4-0.5-2c-0.8-0.8-1.7-1.4-2.7-2l2.1-0.4l-0.6-2.4l0.8-1.9l-2.5-4.2h3l-2.5-3.4c0,0,1-1.4,1.8-1.4
			c0.7-0.1,1.3-0.2,2-0.4c-0.9-0.9-1.9-1.6-3-2.1c-1.1-0.6-2-1.4-2.8-2.4l2.5,0.9l1.4,0.4l-1.1-2.5l0.8-1.2l-2.9-2.8l1.2-1.9
			l2.6,0.2l-3.1-2.2l0.9-1.4h1.4c0,0-2.2-2.9-2.5-3.2c-0.5-0.5-1-0.9-1.5-1.2l-0.1-1.2l1.6-0.5l-1-5.4l-1.6-2.2l-1.1-3.5
			c0,0,0.4-1.5,1.4-1.6c0.6-0.1,1.3-0.1,1.9,0c0,0-1.2-2.4-2.9-2.9l-1.6-0.5l-1-2.4l1.5,0.1l-1.9-2.6l1.1-2.1l1.9,0.8l-2.2-3
			l-0.8-2.4l-2.9-2.1l0.1-1.6l3.5,1.8c-0.3-0.7-0.8-1.3-1.4-1.9c-0.6-0.6-1.2-1.3-1.6-2.1l2.2-0.6l-2.9-2.1l-4.2-1.6l1.8-1.4l3-0.1
			l-2.9-2.6l-2.2-1l2.6-1.6l-4.1-2.8l3.4-2l-2.6-1.4l0.4-1.4L281,136l-1.8-1l-0.8-4.2l-2.4-2.6l-1.4-3.9l-2.1-3.9l2,1.1
			c-1.4-2.1-2.1-4.6-1.8-7.1c0.5-4.2,7.5-9.4,7.5-9.4l2.1-1.4l-1.8-3.9c-0.6-0.9-0.9-2-0.9-3.1c0.2-1.3,0.8-2.6,1.6-3.6
			c-56-67.6-156.3-77-223.9-21c-4.5,3.8-8.9,7.8-13,12c0.1,1.1-0.2,1.8-1,1.8c-0.2,0-0.5,0-0.7,0c-0.7,0.7-1.4,1.5-2.1,2.2
			c0.9,0.8,1.7,1.5,1.6,2.2c-0.3,1.3-2.5,1.7-2.8,2.3s4.7,2.8,6.2,6.8s4,5.8,7.5,11.3s-0.3,11.5,1,11.5s2.3,2.2,0.7,2.2h-1.6
			c0,0,1.5,0.8,0.3,2.4s-4.5,2.7-4.5,2.7l2.9,1.7l-4.8,1.5c0,0,0.9,0.9,0.5,1.6s-0.1,3.2-1.9,4c-1.8,0.6-3.6,1.2-5.4,1.6
			c0,0,3.1,0,3.4,1.4s0.6,3.2-1.9,4.9s-4.6,2.7-4.6,2.7s2.9-0.1,3.5,1.1s-4.5,2-4.5,2l0.1,1.2l-2,1.2v2.1l-0.8,2.4
			c0,0,2.2,1.6,1.9,2.2c-0.9,0.9-1.9,1.8-3,2.5l0.4,1.4c0,0,2.6,0.2,2.4,1.5s-2.4,1.7-2.4,1.7l1.2,2.2l-2.8,4.5c0,0,3.2,1.3,2.2,2.5
			c-0.8,0.8-1.7,1.5-2.7,2c0,0,0.2,2.8-0.7,3.3c-0.8,0.4-1.7,0.8-2.6,1.2c0,0,3,1.7,2.3,3.3c-0.4,1-1.3,1.8-2.3,2.2
			c0,0,2,2.7,1.5,4.3s-3.3,3.7-3.3,3.7c0.8,0.6,1.1,1.7,0.7,2.7c-0.9,1.3-1.9,2.5-3,3.5H28l-2.2,2.5l0.8,1.7l-1.3,2.2h1.5
			c0,0,0.5,2.5-0.2,3.3c-0.7,0.9-1.3,1.9-1.8,2.8c0,0,2.2,0.5,1.5,1.8c-0.5,1.2-1,2.4-1.3,3.7l0.3,1.7l-2,3.5l2,0.7l-1,2.7l-1,2.3
			c-3.6,14.3-3.8,29.3-0.7,43.7c45.2,75.3,142.8,99.7,218.1,54.6c24.9-15,45.3-36.5,58.9-62.2C303,252.9,299.3,241.9,299.3,241.9z"
			/>
	</g>
	<g id="Layer_29">
		<path class="st6" d="M19.7,35.7c1.3,1.4,1.9,3.3,1.7,5.2c-0.3,1-2,2.2-2,2.2c0.9,0.5,1.5,1.3,1.8,2.3c0.3,1.5,0,3.5,1.2,4.5
			s2.5,2,2.2,3.2s-0.5,3.8,1.2,5.5s3.7,3.5,2.8,4c-0.6,0.4-1.2,0.9-1.7,1.5c0,0,4.3,0.7,4.3,2.3S28.7,68,28.7,68s3.3,1.5,4,2.7
			s2.2,4.3,2.8,4.3s5.8,1,7.3,4s0.9,4.2-0.8,5.6c-1.3,1-2.8,0.2-3.1,1.2s3.8,3,3.5,4.3s-2.5,1.7-2.8,2.3s4.7,2.8,6.2,6.8
			s4,5.8,7.5,11.3s-0.3,11.5,1,11.5s2.3,2.2,0.7,2.2h-1.7c0,0,1.5,0.8,0.3,2.4c-1.2,1.6-4.5,2.8-4.5,2.8l2.9,1.8l-4.8,1.5
			c0,0,0.9,0.9,0.5,1.6s-0.1,3.2-1.9,4c-1.8,0.6-3.6,1.2-5.4,1.6c0,0,3.1,0,3.4,1.4s0.6,3.2-1.9,4.9s-4.6,2.7-4.6,2.7
			s2.9-0.1,3.5,1.1s-4.5,2-4.5,2l0.1,1.2l-2,1.2v2.1l-0.8,2.4c0,0,2.2,1.6,1.9,2.2c-0.9,0.9-1.9,1.8-3,2.5l0.4,1.4
			c0,0,2.6,0.2,2.4,1.5s-2.4,1.7-2.4,1.7l1.2,2.2l-2.8,4.5c0,0,3.2,1.3,2.2,2.5c-0.8,0.8-1.7,1.5-2.7,2c0,0,0.2,2.8-0.7,3.3
			c-0.8,0.4-1.7,0.8-2.6,1.2c0,0,3,1.7,2.3,3.3c-0.4,1-1.3,1.8-2.3,2.2c0,0,2,2.7,1.5,4.3s-3.3,3.7-3.3,3.7c0.8,0.6,1.1,1.7,0.7,2.7
			c-0.9,1.3-1.9,2.5-3,3.5H28l-2.2,2.5l0.8,1.7l-1.3,2.2h1.5c0,0,0.5,2.5-0.2,3.3c-0.7,0.9-1.3,1.9-1.8,2.8c0,0,2.2,0.5,1.5,1.8
			c-0.5,1.2-1,2.4-1.3,3.7l0.3,1.7l-0.7,1.2c3.9,2.7,7.5,5.8,10.7,9.2c1.4,1.5,2.9,2.9,4.5,4.3c0.1,0,2.4,1.7,2.5,1.8
			c0.9,0.6,1.8,1.2,2.7,1.8c5.1,3.3,10.4,6.3,15.6,9.5c2.7,1.7,5.4,3.4,8,5.2c0.9,0.6,1.8,1.3,2.7,1.9c0.2,0.1,3.4,2.8,1.4,1
			c-1.6-1.3,0.5,0,1.3,0.3l0,0l1,0.1c2.7,0.3,5.4,0.6,8.2,0.9c13,1.2,26.1,2.1,38.7,5.3c3.3,0.8,6.5,1.9,9.9,2.5l2,0.4
			c0.2,0,1.9,0.2,2.4,0.2c5.6,0.5,11.2,0.5,16.8,0.9c7,0.6,14,1.6,21,2.7c6,0.9,10.2,1.6,14.7,2.1c6.2,0.6,12.4,0.7,18.6,0.1
			c6.9-0.6,8.7-1.1,16.1-2c3.2-0.4,6.4-0.8,9.6-1.1l4.3-0.4l0.9-0.1c5.4-0.8,10.7-2.1,15.9-3.8c1.6-0.5,3.1-1.1,4.6-1.7l0.7-0.3
			c2.6-1.2,5.2-2.6,7.7-4.1c2.2-1.3,4.4-2.7,6.5-4.2c0.3-0.2,1.9-1.4,2-1.5c0.7-0.5,1.4-1.1,2-1.6c6.6-5.5,12.8-13.5,20.6-17.9V236
			c0,0-1.9-4.5-1.2-4.5s4.3,2.8,4.7,2.2s-3.2-3.8-3.2-3.8c0.4-0.5,0.9-0.8,1.5-0.8h0.8c0.1-0.7-0.1-1.4-0.5-2
			c-0.8-0.8-1.7-1.4-2.7-2l2.1-0.4l-0.6-2.4l0.8-1.9l-2.5-4.2h3l-2.5-3.4c0,0,1-1.4,1.8-1.4c0.7-0.1,1.3-0.2,2-0.4
			c-0.9-0.9-1.9-1.6-3-2.1c-1.1-0.6-2-1.4-2.8-2.4l2.5,0.9l1.4,0.4l-1.1-2.5l0.8-1.2l-2.9-2.8l1.2-1.9l2.6,0.2l-3.1-2.2l0.9-1.4h1.4
			c0,0-2.2-2.9-2.5-3.2c-0.5-0.5-1-0.9-1.5-1.2l-0.1-1.2l1.6-0.5l-1-5.4l-1.6-2.2l-1.1-3.5c0,0,0.4-1.5,1.4-1.6
			c0.6-0.1,1.3-0.1,1.9,0c0,0-1.2-2.4-2.9-2.9l-1.6-0.5l-1-2.4l1.5,0.1l-1.9-2.6l1.1-2.1l1.9,0.8l-2.2-3l-0.8-2.4l-2.9-2.1l0.1-1.6
			l3.5,1.8c-0.3-0.7-0.8-1.3-1.4-1.9c-0.6-0.6-1.2-1.3-1.6-2.1l2.2-0.6l-2.9-2.1l-4.2-1.6l1.8-1.4l3-0.1l-2.9-2.6l-2.2-1l2.6-1.6
			l-4.1-2.8l3.4-2l-2.6-1.4l0.4-1.4L281,136l-1.8-1l-0.8-4.2l-2.4-2.6l-1.4-3.9l-2.1-3.9l2,1.1c-1.4-2.1-2.1-4.6-1.8-7.1
			c0.5-4.2,7.5-9.4,7.5-9.4l2.1-1.4l-1.8-3.9c-0.6-0.9-0.9-2-0.9-3.1c0.9-4.5,4.1-5.4,4.1-5.4l-0.8-1.9l1.1-3.2c0,0-3.6-3.2-2.4-6.8
			c0.8-2.1,2.6-3.5,4.8-3.9l1.5-1l0.2-1.6l2.6-1.4l-1-1.2l2.5-2.8l-0.2-1.6l5-5.9l-0.6-2l3.5-3l-0.6-2l3.6-3.1c0,0-2.9-1.8-2-3.5
			s4.5-3.9,4.5-3.9s-1.9-3-1.8-4.9c0.1-1.1,0.4-2.2,0.9-3.1l1-2.6c0,0-2.6-1.1-2.8-2.5c0-0.9,0.2-1.8,0.6-2.6c0,0,0.5-3.2-0.4-3.8
			c-0.7-0.5-1.3-1.1-1.8-1.8c0,0,0.4-2.5-0.6-3.2c-0.6-0.4-1.3-0.7-2-0.9c0,0,0.2-2.4-1.1-3.4c-1-0.7-2.1-1.3-3.2-1.8
			c0,0-0.6-1.5,0-1.9l0.6-0.4l-2-3.5l-4.5-1.9c0,0-0.9-2.1-2.5-2.1s-3-1.1-4-1.1c-0.7,0-1.3,0.1-2,0.2c-1.8-1.3-4.1-1.7-6.3-1.3
			c-3.2,0.9-5.8,1.4-5.8,1.4L266,1.4l-1.9,1.4c0,0-2.1-0.9-3.5,0.2c-0.8,0.6-1.4,1.4-1.6,2.4c0,0-2.4-0.6-3.5,0.2
			c-1,0.9-2,1.8-2.9,2.9c0,0-4.5,3.5-4.6,5s-0.5,3-2,3.6s-3.5,1.1-3.9,1.9s-1.8,4.4-2.6,4.6s-2.2,0.1-2.5,1.4s0.5,2.5-0.4,3.8
			s-2.4,0.6-2.2,2.1s1.8,3-1.4,4.5c-2.3,0.9-4.8,1.2-7.2,0.9c0,0-3.4-0.1-4.2-0.9s-2-2-2.9-1.5c-0.7,0.4-1.4,0.7-2.1,0.9
			c0,0-0.6-2.1-2.4-2.5c-1.2-0.2-2.3-0.2-3.5,0c0,0-2-2.1-3.2-2.2c-1.1,0-2.3,0-3.4,0.1c0,0-1.4-3.2-3.2-2.6
			c-0.9,0.3-1.9,0.6-2.9,0.8c-0.8-0.1-1.7-0.2-2.5-0.4c-0.8-0.2,0.1-2.2-3.8-1.5l-3.9,0.8c0,0-0.2-2.2-3.2-1.4s-5.5,1.6-5.5,1.6
			l-2.2-0.8c0,0-3-1.9-5.8-1.1c-1.6,0.4-3.1,1-4.5,1.9l-2.1-1l-2.5,2c-0.2-0.7-0.2-1.5,0-2.2c0.3-1.1,1.1-1.1,1.1-1.1
			s-2.6-0.1-3.5,0.5s-2.1,1.4-2.1,1.4s-3.2-1.1-4.9-0.8s-2.2,1.6-3.4,1.4s-2-2.1-3.8-1.5c-0.9,0.4-1.9,0.6-2.9,0.6
			c0,0-2-2.1-3.2-1.5c-0.9,0.5-1.7,1-2.5,1.6l-4.4-1.3l-4,2.3h-6l-5.7,2.3l-4.3,2.7c0,0-5,2-6.7,2s-4-2-5.3,0s-3,3-4.3,3
			s-7.9-7.6-8.7-9.7C85.2,22,79,17.2,79,17.2S73,3.8,63.7,1.4s-23.3,0-23.3,0s-3,1.8-4.7,1.8S30.3,4,30.2,5.4
			c-0.2,0.9-0.5,1.8-1,2.7c0,0-3.3-0.3-3,1.7s2.5,6,0,6.3s-5.2,1.2-4.5,3s0,3.6-1.5,6.3S17.5,29.2,18,31
			C18.5,32.8,18.3,34.5,19.7,35.7z"/>
	</g>
	<g id="Layer_26">
		<path class="st7" d="M168,44.9c-0.3,0.9-0.6,1.8-0.8,2.7c2-1,4.1-3.2,6.4-2.9c2,0.2,0.6,1.2,0.5,2.6c0.9-1,5.7-2.3,5.7-2.3
			l-1.6,2.4c7.1-1.5,7.8,2.3,11.6,1.5c0.4-0.1,0.8,0.1,1.1-0.1c1.3-1.1,2.7-2.1,4.2-2.8c-1.2,1.8-0.2,2.7,0.2,5.6
			c0.2-1.5,1.1-2.9,2.5-3.6c0,0-0.2,2.3,3.7,5c0.1-1.1,0.9-2.1,2-2.3c0,0,4.8,5.4,6.6,6.2c-0.5-1.6,0.6-2,0.6-2s3.2,3.9,3.9,4.2
			l2.6,1.3c-0.7-3,1.1-9.1,0.8-11.5c-0.6,0.6-2,1.9-2.1,1.2c-0.4-2.8-1.3-4.9-4.1-6.2c-0.2-0.1,0.1-1-0.1-1.2
			c-1.8-1.2-3.8-0.5-5.8-1.3c-1-0.4-1.2-0.8-1-1.7c-0.3,0-0.6,0-0.9-0.1l-2.3,0.8l-2.6-0.7l-3.3-1.3l-6.6,1l-4.7-2l-3.3,0.7
			l-4.4-1.3l-3.6-0.7c0,0-3.6,0.6-4,1s-6.4,7.4-6.5,10.9C165.2,45.3,169,43.8,168,44.9z"/>
		<path class="st7" d="M158,45.8c0.3,0.9,0.5,1.8,0.6,2.7c-1.9-1.1-3.8-3.4-6-3.3c-1.9,0.1-0.6,1.2-0.6,2.5
			c-0.9-1.1-5.4-2.7-5.4-2.7l1.4,2.5c-6.8-1.9-7.7,1.9-11.4,0.8c-0.4-0.1-0.8,0.1-1-0.2c-1.1-1.2-2.4-2.2-3.9-3c1,1.9,0,2.7-0.6,5.6
			c-0.1-1.5-0.9-2.9-2.2-3.7c0,0,0.1,2.3-3.9,4.7c0-1.1-0.7-2.1-1.8-2.5c0,0-4.9,5.2-6.7,5.9c0.6-1.6-0.5-2-0.5-2s-3.3,3.7-4.1,4
			l-2.6,1.2c0.9-3-0.5-9.1-0.1-11.5c0.5,0.7,1.9,2,2,1.4c0.6-2.8,1.6-4.8,4.3-5.9c0.2-0.1-0.1-1,0.2-1.2c1.8-1,3.7-0.3,5.7-1
			c0.9-0.3,1.2-0.8,1-1.6c0.3,0,0.6,0,0.9,0l2.2,0.9l2.5-0.5l3.3-1.1l6.3,1.4l4.7-1.7l3.1,0.8l4.3-1.1l3.6-0.5c0,0,3.5,0.8,3.8,1.2
			s5.8,7.8,5.6,11.3C160.7,46.4,157.1,44.7,158,45.8z"/>
	</g>
	<g id="lighter_fur">
		<path class="st8" d="M137.3,127.9l-1.6-3l1.6,0.8v-2.2l1.4-3l2.8,1.8l-1.2-2.9l-1.6-2.4v-4.9l5.1,1.4c0.6-1.1,0.6-2.5,0-3.6
			l-2.3-5.5l-0.3,3.8l-3.7-2.7v3.2l-2.3,0.7l-4.7-1.8l-3.8,1.7l-8.6-0.8l-0.1,1.5l-3.7-0.5v2.7h-3.2v2.6l-3,1.4l-0.8-2.7l1.5-1.4
			l-0.2-2.9l2-1l-0.8-2.3l6,0.5c-0.4-1-0.5-2.1-0.4-3.2c0.2-1.8,1.1-2.8-0.5-3.8s-5.4,0.3-5.4,0.3s2.5-2.3,4.9-2.2
			c1.3,0.1,2.5,0.3,3.7,0.7l-3-2.8l3.8-0.8l-2.1-2.3l4.2-0.7c0,0,1.2-3.2-0.2-3.3c-1-0.2-2-0.6-2.8-1.2c0,0,3.3-0.8,2.2-2.4
			s-2.1-3.2-2.1-3.2c1.6,0.5,3.1,1.2,4.5,2.1c1.9,1.6,4.9-0.6,4.9-0.6l-1.9-2.9c0,0,5.8,2,4-1.1c-2.7-4.7-9.7-8.9-9.7-8.9l5.3,0.9
			l1.5-0.9l-6.6-5.3c0,0,6,1.9,8.2,3.2c1.5,0.9,3.1,1.6,4.8,2.1c0,0,2.5,0.2,3,0.8s1.3-2.5-1.5-4.7s-5.7-2.8-6.3-4.2
			s-5.3-2.7-5.3-2.7h3l4,1.3c0,0,2.8,1.7,4.2,2.3c1.7,0.6,3.4,1.2,5.2,1.7c1.3,0.5,2.5,1,3.7,1.6c0.5,0.2,1.1,0.2,1.6-0.1
			c-0.5-1-1.1-2-1.8-2.9c-1.4-1.3-2.8-2.5-4.3-3.7c0,0,6.3,1.9,8.5,4.1c0.9,1,1.9,1.9,3.1,2.5c0,0,1.2,0.4,1.3-1.4
			c0.1-1.3,0.1-2.5,0-3.8l1.2,1.5c0,0,2.7-1.3,2.8-2.5c0.1-1.1,0.1-2.2,0-3.3c0.7,0.7,1.3,1.5,1.8,2.3c0.7,1.8,1.1,3.8,1.2,5.8
			l2.7,1.4l1.9-1.4c0,0,0.2-2,0.4-4.3c0.2-1.5,0.9-2.9,2-3.8c-0.1,1,0.1,2.1,0.7,3c0.8,1,3.7,1.5,3.7,1.5v5.7l3.2-0.7l1.8-3.5v4.3
			c0,0,2.3,1,3.3-0.8s2.3-4.5,2.3-4.5l1.8-0.5l1,3.6c-0.7-0.1-1.3,0.4-1.4,1.1c0,0.1,0,0.2,0,0.3c0.2,1.2,0.6,2.4,1.3,3.3
			c0,0,2.3-2.8,2.8-4.7s1.3-7.3,1.3-7.3s0.8,5.4,0.8,7.3s1.8-2,1.8-2c0.6,1.3,0.9,2.7,0.8,4.2c-0.2,2.3-1,3.1-1,3.1
			c1.4,0.1,2.7-0.4,3.7-1.4c1.5-1.7,1.1-2.4,2.5-3.9l3-3.1c-1,1.3-1.8,2.9-2.2,4.5c-0.5,2.6-1.9,4.9-4,6.5c0,0,3.4-1.2,4.2-2.6
			c2-3.9,4-4.6,4-4.6c-0.8,1.5-1.4,3-2,4.6c-0.4,1.2-1.1,2.3-1.8,3.2c1.3,0.6,2.8,0.3,3.9-0.7c1-0.7,1.8-1.6,2.5-2.6
			c0,0-0.5,5.9-0.8,9.2s-3.5,5.3-3.5,5.3s4.5-0.5,5.2-1.5c1.3-1.4,2.7-2.8,4.2-4c0,0-1.3,4.7-2.4,5.5s-2.8,2.2-2.8,2.2
			c1.6-0.7,3.4-0.9,5.2-0.5c1.7,0.4,3.3,1,4.7,1.9c-1.4,0.5-2.7,1.2-3.8,2.2c-0.9,0.9-1.4,2.1-1.7,3.3c0,0,2.8-1.1,4.8,0
			s2.9,2.4,4.2,2.1s3.3-0.7,3.3-0.7c-0.4,1.6-1.7,2.8-3.3,3.2c-2.7,0.5-7.3,1.5-7.3,1.5c1.4,0.1,2.8,0.6,4,1.3
			c1.7,1.2-2.3,0.7-3.2,2.5c-0.5,1.1-0.8,2.3-0.8,3.5c0,0,0-0.8,2.1-1c1.2-0.1,2.5-0.1,3.7,0l-1.5,2.5l1.7,0.8l-1.4,1.7
			c1,0.8,1.9,1.7,2.7,2.6c0.6,1.2,0.3,2.7-0.7,3.6c0,0-1.8-3.2-3.2-2.3l-0.5-2.6l-3,1.4l-1.2-3.2l-2.1,1.9c0,0-1.2-4-4.2-4.7
			s-0.9,2-0.9,2s-5.4-1.7-6.9,0.5s-2.5,1-2.5,1s1.5-3.8-0.8-3.2c-1.7,0.5-3.3,1.3-4.8,2.2l1.7-4c0,0-4,0.7-4.5,4
			c-0.3,1.9-0.7,3.7-1.3,5.5c0,0,2.5-0.5,2.5-1c0.3,0.9,0.4,1.9,0.2,2.8c-0.3,1.2-1,3.4-1,3.4c1.2-0.3,2.3-1,3-2
			c1.2-1.6,3.5-5.2,3.5-5.2l-0.5,3.6l2-2.7l-0.2,2.8l2.2-1.5l-1,3.8l-2.7,1.1l-2.2,1.8l0.5,2l4.3-2l-0.7,3.4l0.5,2.2
			c0,0-2.3-0.9-2.8,0.8s-4.3,2.2-4.3,2.2l-21.7,5.4L137.3,127.9z"/>
		<path class="st8" d="M209.4,150.6c0,0,0.5,4.1,4.1,5.6c2.3,0.9,4.7,1.6,7.1,2l5.5,0.8v-2.2c0,0,0.2,1.8,4.5,2.2s5.1,0,5.1,0v-1.4
			c0.8,0.4,1.7,0.6,2.6,0.8c0.8-0.1,1.7-0.2,2.5-0.4c0-0.8-0.2-1.6-0.6-2.4c-0.6-1.1-1.9-3.6-2.9-3.5c-0.8,0-1.7-0.1-2.5-0.4l1-1.1
			c0,0,1.2-1.1,3.6,0s5.2-0.5,5.2-0.5s-2.1-0.5-2.5-1.2c-0.2-0.6-0.4-1.1-0.4-1.8c0,0,2.2,0.6,2.9,0s-0.6-3-0.6-3s0.6-0.9,2.5-0.8
			c0.9,0,1.7,0.2,2.5,0.6l-2.4-2.5c0,0,1-1.8,1.9-1.8h1.5c0,0-5.1-2.2-9.2-2.1c-2.2,0-4.4,0.3-6.5,0.8l-0.8-1.4l2.6-2.1h-1.4
			l-8.2,2.5l4.1,0.8c0,0-1.5,3.4-4.4,3.1s-7.2,1.2-7.2,1.2l3.2,1c0,0-2.2,0.9-3.2,1.1c-1.5,0.4-3,0.5-4.5,0.4c1.3,1,2.8,1.7,4.5,2
			c1.2,0.2,2.5,0,3.5-0.6c0,0-1.8,2.4-2.7,2.6c-5.9,1.4-7.6-2.1-7.6-2.1c-0.3,2.3,0.7,4.5,2.6,5.7c1.8,1.2,3.8,2,5.9,2.4
			c0,0-4.9,0.4-7.5-1.1C211.9,153.1,210.5,151.9,209.4,150.6z"/>
		<path class="st8" d="M118.8,151.6c0,0-0.5,4.1-4.1,5.6c-2.3,0.9-4.7,1.6-7.1,2l-5.5,0.8v-2.2c0,0-0.2,1.8-4.5,2.2s-5.1,0-5.1,0
			v-1.4c-0.8,0.4-1.7,0.6-2.6,0.8c-0.8-0.1-1.7-0.2-2.5-0.4c0-0.8,0.2-1.6,0.6-2.4c0.6-1.1,1.9-3.6,2.9-3.5c0.8,0,1.7-0.1,2.5-0.4
			l-1-1.1c0,0-1.2-1.1-3.6,0s-5.2-0.5-5.2-0.5s2.1-0.5,2.5-1.2c0.2-0.6,0.4-1.1,0.4-1.8c0,0-2.2,0.6-2.9,0s0.6-3,0.6-3
			s-0.6-0.9-2.5-0.8c-0.9,0-1.7,0.2-2.5,0.6l2.4-2.5c0,0-1-1.8-1.9-1.8h-1.5c0,0,5.1-2.2,9.2-2.1s3.7,0.4,6.5,0.8s5.1,3.1,8,2.9
			s7.2,1.2,7.2,1.2l-3.2,1c0,0,2.2,0.9,3.2,1.1c1.5,0.4,3,0.5,4.5,0.4c-1.3,1-2.8,1.7-4.5,2c-1.2,0.2-2.5,0-3.5-0.6
			c0,0,1.8,2.4,2.7,2.6c5.9,1.4,7.6-2.1,7.6-2.1c0.3,2.2-0.7,4.5-2.6,5.7c-1.8,1.2-3.8,2-5.9,2.4c0,0,4.9,0.4,7.5-1.1
			C116.3,154.1,117.7,152.9,118.8,151.6z"/>
		<path class="st7" d="M72.7,191.4c0.3-1.5,1.3-2.9,2.7-3.7c0,0-1.7-1.2-2.5-0.8s0.3-2,0.3-2l-1.5-0.8c0.7-1.6,1.7-3,3-4.2
			c1.7-1.2,3.5-1.9,5.5-2.3l-4.8-0.5v-1.7l2.5-2.7l-0.2-1.5l2-2.5l-1.7-0.3l-4.2,2.6l-1.2-1.5l0.8-2.8l1.7,0.2l2.3-2.3l-2.2-1
			l-2.5-1.2l3.5-1.3h3l-3.7-2.2h-2.8l-2.2-0.7l1.8-2.2l0.2-2.2l-2.8,0.7l-3-0.3l-2.5,4.8l-2.2,1l-1.5,2.5l-2,3l2.2-0.5l2.5-0.2
			L63,168l-2.2,2l0.8,3l-3,0.2l4,1.8l0.8,2l-0.2,2.8l3.2,1.2l1.8-0.2l-2.2,1.8L66,184l2.8,0.5l-2.5,1.5l3,0.5l-0.5,2.2H72
			L72.7,191.4z"/>
		<path class="st7" d="M255,192.7l-1.7-2.5l1-1.5l-0.5-2.3l-0.2-2.3l-1.7-3.7l-1.7-0.5l0.7-1.7l-0.8-2l0.5-1.8l-3.2-1.2l-1.3-2.3
			l2.7,0.2l-2-2.7v-1.2l4.2,1.2v-1.5l-3.8-2.5l3-0.8l2.7,0.3l1.5-1l-2.7-1.5l-3-0.5l1.7-1.2l2.7-0.2l2.7,0.2l0.5-1.8l-2.8-2.3
			l5.7,0.3l4,2.3l1.7,3.2l-3.5,1.8l1.3,1.7l2.2,1l0.5,1.2l-2.3,1.3l1.7,1.2h2.8l-0.2,1.8l-2,0.8h-1.8c0.7,0.6,1.6,0.9,2.5,1.2
			c0.8,0,2.7-0.2,2.7-0.2c-0.5,0.9-1.3,1.5-2.3,1.8c-1.8,0.1-3.7,0.1-5.5-0.2l1.2,1.7l2.2,0.5l-2,1.3l-2.3,0.5h-2.5l-0.5,1.3
			l1.8,0.5l2.7-0.2l-1.7,2.7l-1.7,1l0.7,1.8l2.8-1.2l-2,3l-2.5,1l1.5,0.7L255,192.7z"/>
		<polygon class="st7" points="89.1,114.2 86.3,110.7 81.3,109.2 83.1,107.4 88.1,105.7 84.6,103.4 87.6,102.9 89.6,102.2 
			89.8,99.9 92.1,98.7 95.6,98.9 99.1,98.2 98.3,100.7 95.3,101.7 97.8,103.4 103.1,103.2 99.6,105.7 95.3,106.7 97.3,107.7 
			99.6,108.7 96.8,110.2 92.6,109.9 89.8,110.2 92.3,111.9 94.3,112.2 		"/>
		<polygon class="st7" points="237.1,113.4 239.8,109.9 244.8,108.4 243.1,106.7 238.1,104.9 241.6,102.7 238.6,102.2 236.6,101.4 
			236.3,99.2 234.1,97.9 230.6,98.2 227.1,97.4 227.8,99.9 230.8,100.9 228.3,102.7 223.1,102.4 226.6,104.9 230.8,105.9 
			228.8,106.9 226.6,107.9 229.3,109.4 233.6,109.2 236.3,109.4 233.8,111.2 231.8,111.4 		"/>
		<polygon class="st7" points="243.6,127.9 246.3,124.4 251.3,122.9 249.6,121.2 244.6,119.4 248.1,117.2 245.1,116.7 243.1,115.9 
			242.8,113.7 240.6,112.4 237.1,112.7 233.6,111.9 234.3,114.4 237.3,115.4 234.8,117.2 229.6,116.9 233.1,119.4 237.3,120.4 
			235.3,121.4 233.1,122.4 235.8,123.9 240.1,123.7 242.8,123.9 240.3,125.7 238.3,125.9 		"/>
	</g>
	<g id="snout_shape">
		<polygon class="st9" points="196,118.7 198.3,118.1 198.3,119.9 198.3,121.1 199.7,122.3 202.2,121.6 204.6,120.2 202.5,119.2 
			203,118.1 206.1,115.9 203.7,115.2 202.1,115.2 203,114.1 204.1,114.1 204.6,112.9 202.6,112.1 199.3,112.1 197.7,114.2 
			197.3,115.7 197,117.2 		"/>
		<polygon class="st9" points="125.3,119.7 123.6,120.6 121.8,120.1 120.5,118.2 119.1,117.2 116.6,117.2 118.7,116.1 121,114.9 
			119.2,114.1 122.2,113.4 124.7,113.4 126.7,115.1 127.2,117.2 125.3,117.2 126.6,118.7 124.6,118.4 		"/>
	</g>
	<g id="snout">
		<path class="st9" d="M137.2,129.4l-2.8,1l-2.3,0.8v1.8l-2.7,1l-1.7,1.7h-1.7l-0.8,2.2v1.8l2.3,1.2l-1.2,1.5l-1.2,3.2v3.3
			c0.6,1.5,1,3.1,1,4.7c-0.2,1.8-2.7,4.3-2.7,4.3s-2.2,2-2.2,3.3s-1.7,6.2-1.7,6.2l-3,2.7l-1.3,3v2.7l-3.2,2.7l-4.8,4.2l-1.3,3.2
			c-0.2,1.5-0.2,3,0,4.5c0.5,1.6,0.4,3.3-0.2,4.8c-0.7,2-1,3.2-1.7,2.8s-1.8-2.2-2.2-1s1.5,6,1.5,6l1.8-1.5l-0.8,5.5l-1.8,3.3h4.3
			c0,0-2.2,2.3-1.2,3.2s4.3,1.3,4.3,1.3l-2,1.8c0,0,1.3,2.7,2.7,3s4.8,0.2,4.7,1.2s-1.2,2.2-0.5,2.5s0.8,1.2,2.2,1.2h2.6v2.5h1.6
			c0,0,0.5,2.2,1.7,2.2h4.3l-1.7,1.7c0,0,1,1,1.5,1h2.7c1,0.5,1.9,1.2,2.7,2c1.2,1.3,7.1,21.1,27,21.2c23.5,0,29-17.3,29-17.3
			l1.2-1.5l-1.5-1.2l1.5-0.8l2.7,0.2v-2.3l4.2,0.2v-1.5l-1.7-1.2l4.8,0.2l1.8-3.3l3.5-1.7l2.2-1.2l-1-2.2l2.3-1.3l2.5,0.5l2.7-2.3
			v-3.2l2.5-1.8c0,0,3.2-1.8,3.2-4s-1.7-7.5-1.7-7.5l1.7,0.8c0.7-1.1,0.7-2.4,0-3.5c-1.2-1.7-2-2.7-1.5-5s2.2-6-1.5-11
			s-5.5-5.9-8.2-9.2c-5.3-6.5-4.2-8.3-7.7-13.3s-3.3-13.7-3.3-13.7c0.6-0.6,0.7-1.5,0.5-2.3c-0.3-0.8-0.7-1.5-1.2-2.2l0.5-1.7
			c0.4-1,0.4-2,0-3c-0.7-1.3-3.7-3.3-3.7-3.3l-2.2-0.2l-0.2-2.8l-2.7-0.8l-3.7-0.8l1.7-2.5l-3,0.8l-0.2-2.2c0,0-2.8-0.8-4.2,0
			c-1.7,0.7-3.4,1.3-5.2,1.7l1.7,1l-3.6,1.3l-3.7,1.8l-1-1.7l-1.2,1.8l-2.2,1.5l-2.9-1.5l-1.1-2.2l-0.5,2.7l-3.3-2.2l-3.3-0.5
			l-0.5,1.5l-2-2l-3.7-2.8l-3.7-1.8l-3.8,2.8l-2.5-0.3L137.2,129.4z"/>
	</g>
	<g id="light_snout">
		<path class="st10" d="M120,182.4c-6,0-7.3,6.6-8.9,6c-1.2-0.5,0-4.1,2.6-7.1c6.4-4.6,4.5-7.4,5.6-9.4c4.3-2.9,3.8-8.2,6.1-10.5
			c2.1-2.3,1.4-1.6,2.1-3.2c1.5-3.2,2.1-3,2.1,0.8c0,1.8-1.5,4.5-1.6,6.5s1.2,4.1-0.6,9.8c-0.8,2.4-1.7,2.3-2,4
			C125.1,181.3,122.2,182.4,120,182.4z"/>
		<path class="st10" d="M195.6,153.4c0.8,4.8,3.9,6.2,5.4,11.2s2.7,6,2.7,6s3.2,2.2,3.3,3.3s-0.7,2.3,0.8,3.3
			c1.6,1.2,3.1,2.5,4.5,3.8l-2.3,0.7l-2.7-0.3c0,0,0.2,2.7,1.3,2.8s-1.5,2.5-3.3,2.2s-2.7-5.5-3.4-6.6c-1.8-2.9-5.7-5-5.5-8.1
			s-0.3-5-2.1-9C192,157.6,195.3,151.6,195.6,153.4z"/>
		<path class="st10" d="M174.5,172c-1.8-0.7-5.3-0.5-5.8,0s-1.3,2.7-0.2,2.7c1.3-0.1,2.6,0,3.8,0.2c1.3,0.3,2.3-0.7,3.2,0
			s3.2,1.5,3.5,0.8s-1.5-1.8-2.5-2.5C175.9,172.7,175.2,172.4,174.5,172z"/>
		<path class="st10" d="M154.2,172.9c-1.3,0.3-3.5,0.3-4.7,1.5s-4,2.3-3.7,1c0.5-1.7,1.6-3.1,3.2-4c1.5-0.7,3.3-0.2,4.7-0.2
			s2,0.7,2,1.2S154.2,172.9,154.2,172.9z"/>
	</g>
	<g id="dark_snout">
		<path class="st11" d="M170.8,251.4c-0.6,0-1.4,0.9-2,0.8c-0.6-0.1-1.2-0.4-1.5-1c0,0-0.8-2.1,0-2.9c0.3-0.3,4.2-1.4,5.8-2.1
			c2.1-1,4.1-2.4,5.8-4l-12.4,3.4l-19.3-1.7c1.9,1.2,3.9,2.2,5.9,3c1.6,0.5,3.9,0.9,4.2,1.2c0.7,0.8-0.2,3.6-0.2,3.6
			s-1.8,1.2-2.7,0.7s-2-1.2-2-1.2l-2-0.3l-1.3,0.8l-1.2-0.8l-7-4c4.8,5.2,11.6,8.1,18.7,8c10,0,16.8-3.1,21.2-6.8l-2.3,1
			C178.6,249.1,172.5,251.3,170.8,251.4z"/>
		<path class="st12" d="M205.9,213.7c0,0-3.9,4.6-5.5,4.2c-1.6-0.5-3.3-0.6-4.9-0.3c-1.5,0.4-1.9,0.5-2.7,0.2
			c-1.4-0.6-0.9-2.1-1.4-3s-3-1.1-3-1.1s-3-1-2.8-3.2c0.3-1.9,0.7-3.7,1.2-5.5c0.7-0.1,1.4-0.3,2-0.8c0.8-0.5,1.3-1.3,1.5-2.2
			c-0.1-0.5-1.2-4.2,0-5.2s4.8-6.8,3.5-9.2s-0.5-5-0.8-6.8s-1-5.5-3-5.5s-2.8-2-2.8-4.5s0-7.2-1.8-9s-5.5-4.2-3.2-4.8s4,1,4.8,0
			s0-3,1.5-3.8s-0.2-3.2,0-4.8s2.8-0.8,2.8-2.8s-0.5-5.8,0-7s-1-3.2,0.2-4.2l0.4-0.4l-0.7-0.1l-0.2-2.8l-2.7-0.8l-3.7-0.8l1.7-2.5
			l-3,0.8l-0.2-2.2c0,0-2.8-0.8-4.2,0c-1.7,0.7-3.4,1.3-5.2,1.7l1.7,1l-3.6,1.3l-3.7,1.8l-1-1.7l-1.2,1.8l-2.2,1.5l-2.9-1.5
			l-1.1-2.2l-0.5,2.7l-3.3-2.2l-3.3-0.5l-0.5,1.5l-2-2l-3.7-2.8l-3.7-1.8l-3.8,2.8l-2.5-0.3l0.6,2.5l-2.8,1l-2.3,0.8v1.8l-1.6,0.6
			l0.1,0.1c0,0,2.8,1.8,2.2,2.7c-0.6,0.9-1.2,1.7-1.7,2.7c0,0,3,2.5,2.5,3.5s-1.5,2.5-1.5,2.5l-0.2,2.7l2,0.3c0,0,0.7,2-0.2,2.2
			s-0.3,2-0.3,2s3.2,1.3,3.2,2s-2,2.5-2,2.5s-0.7,2,0.3,2.2s0.5,2.5,0.5,2.5l1.7-0.5c0,0,2.2-3.5,2.7-3s-0.8,3.3-0.8,3.3
			s-4.3,4.7-3.7,5.7s0.7,3-0.2,3.7s-3.2,2.7-3.1,4c0.2,1.4,0.2,2.8-0.1,4.2c-0.3,0.8-2,1.8-1.8,2.5s1.5,2.2,1.2,3s-2.3,2.6-2.3,4.8
			c0,2.5,4.8,6.2,4.8,8.7s-0.6,5.2-0.3,5.7c0.8,1.2,2.2,0.2,2.7,1s2.2,6.5,0.8,7.7s-4.2,0.2-4.3,1.3s-0.8,4-2,4.2s-2.8-1.2-3.7-0.7
			s-2.3,1.2-2.9,0.5c-1.7-1.8-3.1-0.5-3.8-2.1c-1.2-2.8-2.9-2.8-3.1-4.5c-0.5-1.8-3.1-2.2-3.1-2.2c1,0.8,1.8,1.9,2.1,3.1
			c0.2,1.3,1.1,1.6,1.8,2.5c0.8,0.5,2,2.3,2.9,3.2s1.2,1.9,1.7,2.6c0.8,0.2,1.8,1.5,4.6,2.5c2.8,0.3,5.7,0.2,8.5-0.3
			c2.4-0.5,4.9-0.4,7.2,0.4c1.7,0.5,7.7,3.7,9.3,3.7s4.5,1.8,7.4,0.8c0.9-0.3,1.8-0.8,2.5-1.5c0.6,1,1.6,1.6,2.8,1.7
			c0,0,5.6-0.5,6.9-1.1c4.8-2.2,4.4-4.7,7.6-4.8c3.8-0.1,6.5,2.6,10.1,3c1.8,0.2,3.3-1.4,4.2-1.5c2.7-0.4,5.2-0.6,6.8-1.7
			c1-0.7,0.6-1.3,1.1-2.1C205.8,217.1,205.9,213.7,205.9,213.7z"/>
	</g>
	<g id="Layer_25">
		<polygon class="st13" points="146.2,168.4 147.8,166.3 150.2,166.6 150.6,164.6 153.1,164.3 153.2,163.4 154.2,161.7 150.6,161.2 
			152.5,159.8 151.2,158.8 153.1,157.3 152,155.3 152.8,152.3 153,149.2 153.8,147.9 152.7,147.4 150.8,147.2 149,147.1 
			149.8,145.1 148.8,143.2 150.5,141.7 150.6,139.8 150,138.9 148.3,136.4 151.1,135.6 152.6,134.7 154.1,131.6 153.5,130.2 
			153.8,129.7 156.2,130 159.5,132.2 160,129.5 161.1,131.7 164,133.2 166.2,131.6 167.3,129.9 168.3,131.5 170.6,130.4 
			171.7,130.9 171.1,133.3 172.3,135.1 171.8,136.9 174.1,137.7 173,140.3 170.7,142.8 172.2,144.7 170.8,146.6 168.8,147.6 
			167.2,148.7 164.8,148.4 164.7,150.2 167.1,151.1 167.1,152.4 170,154.1 171.3,154.6 169.8,156.3 168.3,156.6 169,157.9 
			171.7,159.2 172.2,160.7 170.5,161.3 170.7,162.9 173.1,164.2 172.7,165.7 174.2,166.9 176,167.9 177.3,167.3 179.7,168.9 
			181.6,169.1 180.6,172.1 182.1,172.3 181.7,173.7 183.7,175.2 183.1,176.6 185.1,177.4 184.2,178.8 185.5,179.4 184.7,180.8 
			181.6,181.4 143,180.3 140.2,178.7 139.8,177.7 141.3,177.2 140.2,175.6 141.5,174.8 141.3,173.4 142.6,172.6 141.3,171.4 
			142.2,170.8 142.1,169.3 144,168.7 		"/>
		<path class="st14" d="M176.6,174.2c-0.5-0.5-1.1-0.8-1.7-0.9c-1.2-0.7-12-0.4-14.9-0.3c-2-0.1-5.7-0.3-6.4-0.3
			c-1.3,0-3.2-0.5-4.7,0.2c-1.5,0.9-2.7,2.3-3.2,4c-0.3,1.3,2.5,0.2,3.7-1s3.3-1.2,4.7-1.5c0,0,5.3-0.1,7.4-0.4
			c3.4,0.3,9.7,0.8,10.7,1.2c1.2,0.6,2.6,0.2,3.3,1s2.7,1.6,3.1,1S177.4,175.1,176.6,174.2z"/>
	</g>
	<g id="Layer_21">
		<path class="st11" d="M200.3,217.9c-1.6-0.5-3.3-0.6-4.9-0.3c-1.5,0.4-1.9,0.5-2.7,0.2c-1.4-0.6-0.9-2.1-1.4-3s-3-1.1-3-1.1
			s-3-1-2.8-3.2c0.3-1.9,0.7-3.7,1.2-5.5c0.7-0.1,1.4-0.3,2-0.8c0.8-0.5,1.3-1.3,1.5-2.2c-0.1-0.5-1.2-4.2,0-5.2s4.8-6.8,3.5-9.2
			s-0.5-5-0.8-6.8s-1-5.5-3-5.5c-0.2,0,1.3,3.8,0.1,7.1s1.1,5.8-2.1,7.5s-0.4,5.9-3.8,7.7c-0.5,0.9-1.1,1.8-1.8,2.6
			c-2.7,3.1-6.1,5.6-9.9,7.3c-5.1,4-11.5,5.8-17.7,3.2c-5.1-2.1-8.6-6.6-13-9.8c-2.3-1.5-3.9-3.8-4.6-6.4c-1.1-1.2-1.5-2.8-1.1-4.4
			c-0.1-0.6-2.4-0.2-2.9-2.1s0.2-3.7,0.4-5.9c0-0.6-0.3-6.5-1.4-6.2c0,2.5-0.1,3.1-0.3,3.1c-0.4,0.8-1.9,1.8-1.8,2.4s1.5,2.2,1.2,3
			s-2.3,2.6-2.3,4.8c0,2.5,4.8,6.2,4.8,8.7s-0.6,5.2-0.3,5.7c0.8,1.2,2.2,0.2,2.7,1s2.2,6.5,0.8,7.7s-4.2,0.2-4.3,1.3s-0.8,4-2,4.2
			s-2.8-1.2-3.7-0.7s-2.3,1.2-2.9,0.5c-1.7-1.8-3.1-0.5-3.8-2.1c-1.2-2.8-2.9-2.8-3.1-4.5c-0.5-1.8-3.1-2.2-3.1-2.2
			c1,0.8,1.8,1.9,2.1,3.1c0.2,1.3,1.1,1.6,1.8,2.5c0.8,0.5,2,2.3,2.9,3.2s1.2,1.9,1.7,2.6c0.8,0.2,1.8,1.5,4.6,2.5
			c2.8,0.3,5.7,0.2,8.5-0.3c2.4-0.5,4.9-0.4,7.2,0.4c1.7,0.5,7.7,3.7,9.3,3.7s4.5,1.8,7.4,0.8c0.9-0.3,1.8-0.8,2.5-1.5
			c0.6,1,1.6,1.6,2.8,1.7c0,0,5.6-0.5,6.9-1.1c4.8-2.2,4.4-4.7,7.6-4.8c3.8-0.1,6.5,2.6,10.1,3c1.8,0.2,3.3-1.4,4.2-1.5
			c2.7-0.4,5.2-0.6,6.8-1.7c1-0.7,0.6-1.3,1.1-2.1c4.3-1.9,4.4-5.3,4.4-5.3S202,218.3,200.3,217.9z"/>
	</g>
	<g id="black_fur">
		<path class="st15" d="M199.6,136.3c0,0-1.2-2.5-2.2-3.2c-0.7-0.6-1.6-0.8-2.5-0.6c-0.7,0.2-0.7,1.2-0.7,1.2c1.1,0.7,2.1,1.5,3,2.5
			c0.8,1,1.4,2.2,1.8,3.4h3l0.9-1.8c0,0-0.4-1.2,1.4-1.1c1,0.1,1.9,0.6,2.5,1.5V136c0,0,0.5-1.1,2.7-0.6c1.4,0.4,2.8,0.9,4.1,1.8
			l3.1,0.2l-1.3-2.2c0,0-1.7-2.3-0.7-2.8c0.6-0.3,1.4-0.3,2,0l-1.8-4.4c0.4,0.8,1,1.5,1.8,2c0.9,0.4,1.8,0.7,2.7,1l-1.8-3
			c-0.6-0.9-1-2-1.3-3c-0.1-0.8-0.2-1.6-0.2-1.6l-0.8-1h-1.4l-1.3-1.2l-1.9-0.8l1-1.8c0,0-1.2,0.5-2.1,0.9s-1.8,0.8-1.8,0.8
			l-2.5-0.3l-4.1,1.3l-2.8,0.4l-0.7,1l-0.9,3c0,0,3,1.3,3.5,2.6c0.5,1.2,1.5,0.9,0.9,3.7c-0.1,0.3-2.3-1.8-5.1-2.2
			c3.3,2.1,4.6,3.9,4.6,4.1C200.3,134.7,200,135.5,199.6,136.3z"/>
		<path class="st15" d="M127.6,124.9c-1,0.5-1.8,1.4-2.3,2.3c-0.6,1.4,0,4.5,0,4.5s-2.8,0.6-2.5,2.4s2.4,1.4,2.4,1.4s-0.9,1.8-1,2.2
			c-0.1,0.6-0.1,1.3-0.1,1.9c0,0-4.6-1.4-6.8-1.9c-1.7-0.4-3.5-0.6-5.3-0.8c0,0,0.4-0.6,2.5-0.7s2.1-0.6,2.1-0.6
			c-0.8-0.7-2-1-3.1-0.8c-1.2,0.2-2.3,0.7-3.2,1.5l-2.7,0.6c0,0,1.8-2.1,1.3-3.7s-1.3-1.6-1.3-1.6c0.4-0.4,0.9-0.7,1.5-0.8
			c0.8-0.1,0.8-1.3-0.5-0.8c-0.8,0.3-1.5,0.6-2.2,1.1h-1.6c0.6-1,1.2-2.1,1.7-3.1c0.6-1.3,0.4-4,1.6-4.7l3.7-2.1
			c0.4-1,1.3-1.7,2.4-1.8c1.8-0.1,4.1,1.6,5.6,1.5s2.4,2.1,3.7,2.4S127.6,124.9,127.6,124.9z"/>
		<path class="st15" d="M107.7,41.2l-1.3,2.7h-1.6v3.7c0,0-2.2,1-2.6,0c-0.7-1.1-1.4-2-2.3-2.9c-0.2,1.4-0.2,2.9,0,4.3l0.8,2.5
			l-3.8-1.5c0.1,1.2,0.1,2.4,0,3.7c0,0.8,0.3,1.5,0.8,2c0,0-3.5-0.7-3.8-1.5s-1.2-0.3-1.2-0.3l1,3.5l-0.2,2.5l-1.5,4L91,66l-2.2-1.8
			L85.3,64l1.8-1.7l-0.7-3.7l1.7-1.8l1-2l-0.8-2.7l-3,2L83.5,50l3-0.2l-0.8-2.7l-3.8-1.8L80,42.2l2.2,0.2l2,2.5l3.3,1l1.5-2.3
			l-1.8-0.7l2.5-1.7l0.3-3.5l5.2,4l2.7,1.2l-0.3-2l6.2-0.3L107.7,41.2z"/>
		<path class="st15" d="M74.3,53.8c0.6-0.9,0.9-2.1,0.8-3.2C75,49,73,48,73,48l2.2-1L73,45.8c0,0-0.4-2-3.4-4.2
			c-1.8-1.3-3.9-2.1-6.1-2.4l1.6-2.6l2.3-1.3l2.8-2.4l3.3,1.5l2-0.2l1,3.3v3.5l5.5,1.2l-1.3-3l3-4.3l-2.7-0.3c0,0-0.2-3.5-1.2-4.7
			l-2.7-3.2v-3.9c0,0-1.6-2.9-3.2-6.1c-3.8-4.1-7.6-4.1-7.6-4.1c-1.5,0-4.9-1.2-10.6,0.7c-7.1,2.4-7.5,4-11.3,5s-4.9-0.5-8.3-0.2
			c-2.2,0.3-4.4,1-6.3,2.2l4.4,0.5l2,0.9L33,23.4l-1.3,1.5c4-1.3,6.5-0.3,6.5-0.3l0.8,2l-1.3,3l3-0.2l1,1.5l-7,5.5l3.7-0.7
			c0,0,3.2-2.1,4.7-2.2c0.9,0,1.7,0.5,2,1.3c-1.9,0.4-3.7,1.4-5,2.8c-2.2,2.4-6.7,2.7-6.7,2.7s3.4,3.6,6.8,2.8
			c6.8-1.5,12.2,6.8,12.2,6.8l-7.8-0.6l7.6,3.7c0,0,0,0.7-0.2,3c-0.2,1.2,0.2,2.4,1,3.3c0,0,5.8-7.3,9.4-8.8s8.3-1,10,0
			C73.5,51.3,74.1,52.5,74.3,53.8z"/>
		<path class="st15" d="M258.2,52.2c-0.6-0.9-0.9-2.1-0.8-3.2c0.2-1.7,2.2-2.7,2.2-2.7l-2.2-1l2.2-1.2l4-6.3l3.5-2.2h-4.7l-2.3-1.3
			l-2.9-2.3l-3.3,1.5l-2-0.2l-1,3.3v3.5l-5.5,1.2l1.3-3l-3-4.3l2.7-0.3c0,0,0.2-3.5,1.2-4.7l2.7-3.2v-3.9c0,0,1.6-2.9,3.2-6.2
			c3.8-4.1,7.6-4.1,7.6-4.1c1.5,0,4.9-1.2,10.6,0.7c7.1,2.4,7.5,4,11.3,5s4.9-0.5,8.3-0.2c2.2,0.3,4.4,1,6.3,2.2l-4.4,0.5l-2,0.9
			l3.2,1.7l1.3,1.5c-4-1.3-6.5-0.3-6.5-0.3l-0.8,2l1.3,3l-3-0.2l-1,1.5l7,5.5l-3.7-0.7c0,0-3.2-2.1-4.7-2.2c-0.9,0-1.7,0.5-2,1.3
			c1.9,0.4,3.7,1.4,5,2.8c2.2,2.4,6.7,2.7,6.7,2.7s-1,2-4.4,1.2c-6.8-1.5-8.9,6.6-8.9,6.6l3.9,2.8l-3.7,0.3c0,0,0,0.7,0.2,3
			c0.2,1.2-0.2,2.4-1,3.3c0,0-6.5-6.3-10.1-7.8s-8.3-1-10,0C259,49.7,258.4,50.9,258.2,52.2z"/>
		<path class="st15" d="M239.1,25.9c0,0-2.5,7.3-1.5,8.8s1,3.1,1.5,4.5s4,5,4,5s-3.2,2.5-2.1,4.2c0.8,1.1,1.6,2,2.6,2.8
			c-1.1,1.4-1.1,3.3,0,4.7c1.9,2.7,5.5,3.3,5.5,3.3s-0.2,4.2,1,5.7s4.2,2.8,4.2,2.8l1.2,3.7h3.2l-1.8,1.5l3,1l-2.2,1.5l3.3,1.3
			l-2.3,0.8l3.5,2.2h-3.7l-2.2,1.8l2.2,1.3l-1.5,2.7h2.7l-0.3,1.8l2,1.7l0.8,3.3l1.7,2.5c0,0-3.7,1.8-4.5,3.3s-3,5.2-3,5.2
			s1.5-4.8,1.3-6.5s-0.8-5.8-0.8-5.8s-0.2,4.5-1,5.3l-3.2,3.2c0,0,2-2.5,2-4.8c-0.2-2.5-0.5-5-1-7.5l-1.8-4.7c0,0-1.6,3.7-1.2,5.2
			s-0.8,5.2-0.8,5.2s-1-5.8-1-7.3c-0.1-1.4-0.5-2.7-1-4l-2,4.7l-0.5-6.7l-2.8-1.8l-2.3,3.5c0.6-2.6,1-5.2,1.2-7.8
			c0-2.7-2.5-8.7-2.5-8.7c-1.1,1-2.1,2.1-3,3.2c-0.7,1-2.5,3.5-2.5,3.5c0.4-2.2,0.4-4.5,0-6.7c-0.2-1.5-0.6-2.9-1-4.3l-2.4,1.2
			l1.7-6.8l-5.5,1.3c0,0,0.2-3.8,0.8-4.2c0.8-0.7,1.4-1.5,2-2.3c-1,0-1.9,0.3-2.8,0.7c-0.9,0.4-1.8,1-2.5,1.7v-6.6l-2.7,3.5
			l-1.8-3.8c0,0-2-1.2-2.3-2.5c-0.2-0.9-0.2-1.9,0-2.8l2.3,1.7V39l2.2,2c1.7-0.8,3.5-1,5.3-0.5c1.4,0.5,3,0.6,4.5,0.3l2.8-2
			c0.9-1.4,1.4-2.9,1.7-4.5C235.8,32.2,239.1,25.9,239.1,25.9z"/>
		<path class="st15" d="M55.2,110.4c0,0-1.2-3.4-2.8-4.8c-2.7-2.2-1.3-4.7-0.9-4.5c-2.1-0.1-3.5-1.5-4.3-3.8c-1.1-2-2.9-3.5-5-4.4
			c2.5-1.7,1.5-4.3,0.1-5.6c-0.3-1.1,10.1,4,12.2,7.5c1.6-1.2,0-8.4,0-8.4c1.5,0.4,5.5,2.6,6.9,6.2c1.1-1.7,1.2-3.8,0.5-5.7l5.2-3
			l0.7,3.5c0,0,2.2-5.3,3.1-6c1.2-0.9,2.4-1.9,3.4-3c1,0.6,2.3,0.8,3.5,0.5c2.2-0.5,3.2-3.5,3.2-3.5c0.6,1.3,0.6,2.9,0,4.2
			c-1.1,2.1-2.5,1.8-2.8,3.2s1.6,5.8,1.6,5.8s-2.7,0.8-3.4-1c-0.6-1.5-1-3-1.2-4.5c0,0-2.8,4.5-2.8,7.8s1.8,8.5,1.8,8.5
			s-4.8-1.8-5-3.5s-2.2,2-1,4.8s2,4.2,2,4.2s-2.5,3.2-4.2,0.9s-8.3-2.7-8.3-2.7c3.8,1.2,5.9,2.8,5.5,5.2
			C62.5,107.6,56.6,107.8,55.2,110.4z"/>
		<path class="st15" d="M168.2,276.7c0,0-4.3-2.8-6.2-2.5c-1.2,0.2-2.4,0.2-3.6,0c-0.7-1.3-1.9-2.2-3.3-2.5
			c-2.6-0.7-15.3,4.8-16.1,4.8h-3.6c0,0-5.9-2.5-7.2-3.2s-2.8-4.2-2.8-4.2c-1,0.6-2.1,1-3.2,1.3c-0.8,0-1.8-1.3-1.8-1.3l1.3-2
			c-1-0.5-2.1-0.8-3.2-0.8c-1,0.2-2.7-1.5-2.7-1.5c-1.1-1.4-2.2-2.6-3.5-3.8c-1.7-1.5-3.5-4.8-3.2-6.2s-5-2.2-5-2.2s-4-1.2-4.5-2.7
			s1.5-8,1.5-8s3.2-2.2,1-2.2s-6,2.3-6,2.3s-4.5-8.1-1-12.7c0.9-1.1-2.5-2.3-3-2s-2.8-0.8-2.8-0.8s-5.5-1.6-7.8-4.7
			c-1.4-1.9-2.4-4-3-6.2l3.2-1.9c0,0-1.5-4.8-3.2-4.4s-5.8-4.2-5.8-4.2v-2.8c0,0-5.2,0.3-7-4s-4.8-11-4.8-11l1.5,11l-4.2,4h5.2
			c0,0,3.5,2.6,3.5,5.6s-4.8,7.6-4.8,7.6s7-0.9,9.5,2.4s-1.5,3.8-1.5,3.8l-4.2,6.6c0,0,7.5-3.2,8.5-1.4s-0.5,4.2,1.8,10
			s2,15.8,2,15.8s4.2-2.5,7,0.8s5,15,5,15c-0.8,5-5.2,8-5.2,8s-7.2-3.8-10-17.5c-3.8,9.5-1.5,24.8,0.8,27s4.5,12,4.5,12s3-3.5,6-2.5
			s5.2-3.5,7-3.5s8.8,4,8.8,4l-3.3,6.2l-3.2,4c0,0,7.2-1.2,9.2-3.5s5.8,0,5.8,0s1.1,7,2.7,7.5s5.1,2.2,5.1,2.2s1.5-6.2,3-7.2
			s9.8,1.8,10.8,3s2.7,7.5,2.7,7.5s1.9-7.5,4.2-7.8s11.3,0.8,12.3,2.2s3.8,15.5,3.8,15.5s1.1-14.5,6.9-16.8s11.7,1.5,12.7,1.5
			s2.9,8.5,2.9,8.5s6.9,0.8,6.7,2.5s3-3.8,4-8s5.5-9.2,9-10.2s9.2,7.2,9.2,7.2c1.8-0.6,3.6-1.1,5.5-1.5c0.8,0,6,4.2,6,4.2
			s-1.7-7.6,0-8.5c4.2-2.2,10,3,10,3s-5.2-10-4-11.8c1.1-1.2,2.5-2.1,4-2.5l3,1.5v-5c0,0,5.2,4.2,6,5.5s4,5,4,5v-10
			c-0.1-2.8,2-5.1,4.7-5.2c0.1,0,0.2,0,0.3,0l6.8,4.8c0,0-1.2-8.5,0-9.5s5.8,1.8,5.8,1.8s1.8-4.5,1.5-6.8s-4.2-5.2-5.2-5.2
			s-5.5-10.5-10-7.5s-6.2,13.2-6.2,13.2s-1-9.8-2-11.8S231,259,231,259s1.5-7,6.2-6.8c2.9,0.2,5.8,1.1,8.2,2.7c0,0,5-1.9,4.5-6.2
			s5.2-5.2,5.2-5.2c-1.4-1.8-2.5-3.8-3.2-6c-1.5-4,4.5-8.8,4.5-8.8h3.5v-6.4c0,0-3.8-5.2-2-9.5s8-10.1,8-10.1
			c2.7-1.9,6.1-2.5,9.2-1.8c3.2,0.6,6.3,1.6,9.2,2.9c0,0-2-6.7-3-9.2s-4.8-4.8-4.8-4.8s2.2,4.1,0.2,4.8s-5.8-1.8-8.2-0.3
			s-10.5-1.7-10.5-1.7s-2.2,6.4-4.5,6.1s-3,2.3-3,2.3l2,3.1l-5.8-1.4l2.2,2.8h-4l2,2.9l-4.5,1.4c-0.7,1.5-1,3.2-1,4.9
			c0,2.8-4.2,9-5,8.8s-7.5,1.2-7.5,1.2l1.5,4.2l-3,1.1l0.8,3.2l-5.5-1.4c0,0,4,3.4,4,4.4s0.2,4,0.2,4l-4-1v3l-4.8-0.2l3.2,6.5
			l-4,0.5l-0.2,4l-3.2,2.2l-3.5,3.3l-2.8-1.5l-3.5-1.9l-2,3.8l-3.5,1l-0.8,3.5l-3,0.5l-1.2,2.5l-4,1l-2.2,4.5l-3.6,1.8L179,275
			l-2.5-3.8l-3.8-1.8l-1.4,3.2v3.8L168.2,276.7z"/>
	</g>
	<g id="Layer_13" class="st16">
		<path class="st9" d="M121.3,127.2c-0.5,0.4-1.1,0.6-1.7,0.7c-0.1,0.7-0.7,1.3-1.5,1.3c-0.6,0-1.2-0.4-1.4-1
			c-0.2-0.2-0.3-0.4-0.3-0.6c-0.6-0.3-1.2-0.7-1.6-1.3c-0.3,0.5-0.6,1.1-0.6,1.8c-0.1,0.8,1.2,0.5,1.2,0.5c0,1.1,0.8,2.1,1.8,2.4
			c1.1,0.2,2.3,0.1,3.3-0.5c0.6-0.6,1-1.5,1-2.3C121.5,127.9,121.4,127.5,121.3,127.2z"/>
		<path class="st9" d="M207.3,127.6c-0.1,0.9-1,1.5-1.9,1.3c-0.7-0.1-1.2-0.7-1.3-1.3c-0.5-0.2-1-0.4-1.5-0.8
			c-0.4,0.6-0.6,1.2-0.7,1.8c0,0.6,0.8,0.7,1.1,0.7s1.1,1.6,3,1.6c1.7-0.1,3.2-1.4,3.3-3.2c0.1-0.5,0-0.9-0.3-1.3
			C208.6,126.9,207.9,127.3,207.3,127.6z"/>
	</g>
	<g id="eye_highlights">
		
			<ellipse transform="matrix(0.1122 -0.9937 0.9937 0.1122 -19.6396 229.2785)" class="st17" cx="118.5" cy="125.6" rx="0.7" ry="1.2"/>
		<path class="st18" d="M119.9,133.2c-1.5,0.3-3,0.2-4.4-0.4c-1.7-0.5-2.9-2.1-3-3.8c0.8,1.4,2.1,2.5,3.6,3.2c1.7,0.4,3.4,0.3,5-0.2
			c0,0,1.3,0.2,0.7,0.6C121.2,133,120.6,133.1,119.9,133.2z"/>
		
			<ellipse transform="matrix(0.1122 -0.9937 0.9937 0.1122 58.1169 315.8336)" class="st17" cx="205.8" cy="125.4" rx="0.7" ry="1.3"/>
		<path class="st18" d="M204.1,132.9c1.5,0.3,3,0.2,4.4-0.4c1.7-0.5,2.9-2.1,3-3.8c-0.8,1.4-2.1,2.5-3.6,3.2c-1.7,0.4-3.4,0.3-5-0.2
			c0,0-1.3,0.2-0.7,0.6C202.7,132.7,203.4,132.9,204.1,132.9z"/>
	</g>
	<g id="mouth">
		<path class="st19" d="M187.8,223.2c0,0,0.3,12.3-6,17.2s-12.5,5.8-19.5,5.7s-16,0-21.8-6.8c-3.9-4.4-5.9-10.1-5.7-16h4.2
			c1.9,4.2,5.8,7.1,10.3,7.7c7.8,1.2,20.6,0.9,25.2-0.5c8.3-2.5,9.8-7.2,9.8-7.2L187.8,223.2z"/>
	</g>
	<g id="mouth_copy">
		<path class="st7" d="M187.8,223.2c0,0,0.3,12.3-6,17.2s-12.5,5.8-19.5,5.7s-16,0-21.8-6.8c-3.9-4.4-5.9-10.1-5.7-16
			c0,0,2,13.1,7.4,13.6c5.4,1.2,10.8-3.8,19.6-3.6c8.6,0.1,16.4,4.2,18.9,3.5C188.1,234.6,187.8,223.2,187.8,223.2z"/>
	</g>
	<g id="teeth">
		
			<linearGradient id="SVGID_2_" gradientUnits="userSpaceOnUse" x1="146.1193" y1="142.43" x2="146.9493" y2="120.26" gradientTransform="matrix(1 0 0 -1 0 356)">
			<stop  offset="0.25" style="stop-color:#9B785F"/>
			<stop  offset="1" style="stop-color:#FFFFFF"/>
		</linearGradient>
		<polygon class="st20" points="143.8,228.4 141.8,220.7 149.5,224.6 151.3,231.1 147.3,231.1 143.8,229.7 		"/>
		
			<linearGradient id="SVGID_3_" gradientUnits="userSpaceOnUse" x1="177.1082" y1="143.5899" x2="177.9382" y2="121.4299" gradientTransform="matrix(1 0 0 -1 0 356)">
			<stop  offset="0.25" style="stop-color:#9B785F"/>
			<stop  offset="1" style="stop-color:#FFFFFF"/>
		</linearGradient>
		<polygon class="st21" points="174.1,231.2 175.3,223.1 181.1,220.7 180.5,228.4 		"/>
	</g>
	<g id="mouth_copy_2">
		<path class="st18" d="M161.7,234.1c-22.7,0-22.7-10.9-22.7-10.9c1.9,4.2,5.8,7.1,10.3,7.7c7.8,1.2,20.6,0.9,25.2-0.5
			c8.3-2.5,9.8-7.2,9.8-7.2S184.3,234.1,161.7,234.1z"/>
	</g>
	<g id="nose">
		<path class="st19" d="M168,220.7c2-2.2,0.7-3.2,3.3-4.7s10.7-7.3,14-13.8s3.8-12.7,1.7-16.3s-9.9-12.5-25.4-12.2
			s-23.1,8-24.9,12.8c-1.3,3.5-1.8,11.1,2.3,16.8c3.2,4.4,9.3,9.9,14,13.1c1.4,1,1.6,3.6,3.2,4.7C158.1,222.4,166,222.9,168,220.7z"
			/>
	</g>
	<g id="Layer_27">
		<path class="st22" d="M169.8,185.7c-1.1,0-1.9-0.9-2.5-0.8s-1.5,1-2.9,0.8c-1.7-0.3-3.3-1.1-4.6-2.2c0,0-2.6,0.2-2.6,1.1
			s-3.2,0-3.2,0s-2.2-2.1,0-3c2.6-1.1,5.5-1.4,8.2-1c3.2,0.5,7,1,7.6,1.9S170.9,185.6,169.8,185.7z"/>
	</g>
	<g id="Layer_6">
		<path class="st7" d="M185.2,200.8c0,0-3.2,5.6-4.1,4.3s1-5.3-0.7-4.5s-2.5,0.2-5.7,0.2c-2,0-4.4,0.2-4.4,0.2
			c-0.5,1.8-2.6,1.9-2.8-0.5c-0.2-3.2,4.3-2.9,4.2-2.9s11.4,1.6,12.6,0.4c1.3-1.4,1-4.3-0.6-6.2c-1.3-1.4-3-2.4-4.8-2.9
			c-2.7-0.8-4.2-2.2-7.3-2.2c-2.1,0-4.3,2-5.6,3c-3.4,2.6-1.8,2.8-4.3,2.8c-2.3,0-2.8-1.1-5-3.4c-5.1-5-16,1.5-16,1.5
			s-2.6,5.5-0.8,6.7s22.1-1.4,15.4,4.8c-0.7,0.2-1.2,0-1.4-0.8c-0.8,0-2,0.1-4.5,0.1c-5,0.1-5.5-2.8-5.5-2.8l-1.5,0.5
			c-0.1,0.6,0,1.3,0.2,1.9c0.3,1.1,1.4,4-0.2,3.6s-3.9-4.1-4.8-3.9c-1.4,0.2,6.1,9,8.9,11.1c1.8,1.4,4.9,3.9,5.2,4.3
			c4,4.1,2.4,6.3,10.3,6.3c10,0,7.6-5,10.6-6.9c3.1-2,6-4.4,8.6-6.9C186.5,202.4,185.2,200.8,185.2,200.8z M161.7,215.8
			c-7.9,0-6.5-6.2-6.5-6.2s0.8,4.5,6.4,4.5c6.5,0,6.4-4.5,6.4-4.5S170.2,215.8,161.7,215.8L161.7,215.8z"/>
	</g>
	<g id="mouth_line">
		<path id="_Path_" class="st7" d="M106.8,208l1.7-0.7l0.6-1.4c1.6-0.9,1.8-1.8,1.8-1.8c0.7,0.2,1.5,0.2,2.2,0
			c0.6-0.4,1.1-1,1.4-1.6v1.6l-0.9,1.1c0,0-0.5,2.1,0.1,2.7s1.7,1,2.2,1.7s0.5,2.8,1.2,3.2c0.6,0.4,1.1,0.8,1.6,1.2
			c0.4,0.4,1.2,2.4,2.2,2.7l1,0.2v1.2c1,1.3,2.3,2.4,3.9,3c1.8,0.5,3.7,0.8,5.6,0.7c1.6-0.1,3.1-0.5,4.6-1c0,0,4.8-1,6.2-0.8
			c1.4,0.4,2.7,1.1,3.9,1.9l2.3,1.5l3.6,2.1h1.2l2.9,1h2.6c0,0,1-0.4,1.6-0.6c0.6-0.3,1.1-0.7,1.6-1.2c0,0,1.6,1.7,2.3,1.8
			c0.6,0,1.2,0,1.8,0l1.1-0.9l1.5,0.1l2.4-1.2c1-0.3,1.9-0.7,2.8-1.4c0.9-0.8,1.9-1.3,2.9-1.7c1.3-0.6,2.8-1,4.3-0.9
			c1.8,0.1,6.8,2.5,6.8,2.5c0.4,0.3,0.9,0.6,1.4,0.7c0.5,0,1-0.1,1.5-0.4c1-0.6,2.1-1,3.3-1.4l2.5-0.4l1.5-0.6c0.7,0.1,1.4,0,2-0.3
			c0.7-0.5,0.8-0.8,0.8-0.8v-1.4c1.2-0.3,2.4-0.9,3.2-1.9c0.9-0.9,1.5-2.1,1.6-3.4c0.7-0.3,1.3-0.7,1.9-1.2c0.4-0.5,0.7-1.1,0.9-1.8
			l1.9-1.2l0.9-1.4l-1-3.5l2.5,1.2l2.4,2l1,2l-2.4-1.4l-1.1-0.8l-0.6,1.6c-0.3,0.7-0.8,1.2-1.5,1.5c-1.2,0.5-1.2,1-1.2,1L208,213
			l-0.8,0.8l-1,0.8c-0.3,1-0.7,1.9-1.3,2.8c-1,0.8-2.1,1.5-3.3,2.1c0.1,1.2-0.8,2.3-2,2.4c-1.5,0.2-2.4,0.4-3.6,0.7
			c-1.2,0.2-2.3,0.5-3.4,0.9c-0.7,0.3-1.4,1.1-2.1,1.2c-0.5,0.1-1,0.2-1.5,0.2c-0.4,0-1.8-1.2-2.9-1.3c-0.4,0-1.5-0.4-1.6-0.4
			c-0.8,1.7-2.1,3.2-3.7,4.2c-0.1,0,0.4-4.3,0.4-5.2c-2.3-0.7-4.8,0.4-5.9,2.5l-0.9,5.7c-4.1,0.7-8.2,1.1-12.3,1.1
			c-3.9,0-7.7-0.2-11.6-0.6c0,0-0.7-3.9-1.8-5.4c-1.8-1.8-3.9-3.2-6.4-4c-0.3-0.1,2.1,7.2,1.9,7.2c-0.8,0.1-4.6-4-4.9-5.7
			c-1.4,0.1-2.8,0.1-4.2,0v2.3c-0.4-0.7-0.9-1.4-1.5-1.9c-1.3-0.9-6-1.1-6-1.1c-1.2-0.2-2.4-0.6-3.6-1.2c-0.9-0.7-1.7-1.4-2.5-2.2
			l-0.2-1.4l-1.2-1l-1.2-1.6h-0.9l-0.2-1.2c0,0-1.4-0.9-1.6-1.5s0-2.5-1.2-3s-1.7-0.7-1.8-1.9c-0.1-0.6-0.2-1.3-0.5-1.9l-0.8-0.1
			c-0.7,0.4-1.4,0.9-1.8,1.6c-0.4,0.8-1,0.8-1.6,0.9C107.7,208.1,107.2,208.1,106.8,208z"/>
	</g>
	<g id="nostrils_etc">
		<path d="M170.9,198.8h4.5c0,0,3.6-0.4,4.2,0s1.1,1.4,0.8,1.8s1.2,0,1.2,0s2.9-2.9,2.6-5.2c-0.2-2.5-2-4.6-4.5-5.2
			c-3-0.8-6.4-3.2-8.8-2.5s-6,3.7-5.7,5.7c0.3,1.7,1.1,3.3,2.3,4.6C168.6,198.4,169.8,198.7,170.9,198.8z"/>
		<path d="M142.5,200.8c0,0-2.3-3.4-2.2-5.5c0.3-2.1,1.6-4,3.4-5.1c1.2-0.5,5.5-2,7.8-2.1s7.1,3.4,7,6.3s-1.6,4.7-2.8,4.7
			s-11-1.3-11.8-0.7C143.2,199.1,142.8,199.9,142.5,200.8z"/>
	</g>
</g>
</svg>
